<?xml version="1.0" encoding="utf-8"?>
<!-- Generator: Adobe Illustrator 19.1.0, SVG Export Plug-In . SVG Version: 6.00 Build 0)  -->
<svg version="1.1" id="Layer_1" xmlns="http://www.w3.org/2000/svg" xmlns:xlink="http://www.w3.org/1999/xlink" x="0px" y="0px"
	 viewBox="558 22.2 1728 979.2" style="enable-background:new 558 22.2 1728 979.2;" xml:space="preserve">
<style type="text/css">
	.st0{fill:#030303;}
	.st1{fill:#060606;}
	.st2{fill:#101010;}
	.st3{fill:#1B1B1B;}
	.st4{fill:#242424;}
	.st5{fill:#2C2C2C;}
	.st6{fill:#353535;}
	.st7{fill:#3E3E3E;}
	.st8{fill:#454545;}
	.st9{fill:#4E4E4E;}
	.st10{fill:#595959;}
	.st11{fill:#616161;}
	.st12{fill:#696969;}
	.st13{fill:#717171;}
	.st14{fill:#797979;}
	.st15{fill:#0000FF;}
	.st16{fill:#0607FF;}
	.st17{fill:#1B1BFF;}
	.st18{fill:#2C2CFF;}
	.st19{fill:#3E3EFF;}
	.st20{fill:#4E4EFF;}
	.st21{fill:#6161FF;}
	.st22{fill:#7171FF;}
	.st23{fill:#8080FF;}
	.st24{fill:#9191FF;}
	.st25{fill:#A1A1FF;}
	.st26{fill:#B0B1FF;}
	.st27{fill:#C2C2FF;}
	.st28{fill:#D1D1FF;}
	.st29{fill:#E0E0FF;}
	.st30{fill:#EFEFEF;}
	.st31{fill:#231F20;}
</style>
<polygon points="730.8,281.4 730.8,310.2 673.2,310.2 673.2,339 644.4,339 644.4,281.4 "/>
<polygon points="1393.2,569.4 1393.2,540.6 1450.8,540.6 1450.8,511.8 1479.6,511.8 1479.6,569.4 "/>
<polygon points="1882.8,310.2 1882.8,281.4 1940.4,281.4 1940.4,252.6 1969.2,252.6 1969.2,310.2 "/>
<polygon class="st0" points="1767.6,569.4 1738.8,569.4 1738.8,627 1710,627 1710,655.8 1767.6,655.8 "/>
<polygon class="st0" points="1220.4,22.2 1220.4,108.6 1249.2,108.6 1249.2,51 1278,51 1278,22.2 "/>
<polygon class="st0" points="1306.8,540.6 1335.6,540.6 1335.6,598.2 1364.4,598.2 1364.4,627 1306.8,627 "/>
<polygon class="st0" points="1306.8,396.6 1278,396.6 1278,454.2 1249.2,454.2 1249.2,483 1306.8,483 "/>
<polygon class="st1" points="1479.6,627 1479.6,598.2 1422,598.2 1422,569.4 1393.2,569.4 1393.2,627 "/>
<polygon class="st1" points="586.8,569.4 586.8,627 558,627 558,655.8 615.6,655.8 615.6,569.4 "/>
<polygon class="st1" points="1134,137.4 1162.8,137.4 1162.8,195 1191.6,195 1191.6,223.8 1134,223.8 "/>
<polygon class="st1" points="1652.4,339 1652.4,367.8 1594.8,367.8 1594.8,396.6 1566,396.6 1566,339 "/>
<polygon class="st2" points="1796.4,569.4 1825.2,569.4 1825.2,511.8 1854,511.8 1854,483 1796.4,483 "/>
<polygon class="st2" points="1825.2,166.2 1854,166.2 1854,108.6 1882.8,108.6 1882.8,79.8 1825.2,79.8 "/>
<polygon class="st2" points="1479.6,655.8 1479.6,627 1537.2,627 1537.2,598.2 1566,598.2 1566,655.8 "/>
<polygon class="st2" points="1508.4,22.2 1508.4,51 1537.2,51 1537.2,108.6 1566,108.6 1566,22.2 "/>
<polygon class="st2" points="1191.6,51 1191.6,79.8 1134,79.8 1134,108.6 1105.2,108.6 1105.2,51 "/>
<polygon class="st2" points="1594.8,396.6 1623.6,396.6 1623.6,454.2 1652.4,454.2 1652.4,483 1594.8,483 "/>
<polygon class="st2" points="2084.4,137.4 2084.4,108.6 2142,108.6 2142,79.8 2170.8,79.8 2170.8,137.4 "/>
<polygon class="st3" points="1306.8,454.2 1335.6,454.2 1335.6,511.8 1364.4,511.8 1364.4,540.6 1306.8,540.6 "/>
<polygon class="st3" points="1220.4,713.4 1191.6,713.4 1191.6,655.8 1162.8,655.8 1162.8,627 1220.4,627 "/>
<polygon class="st3" points="1134,252.6 1134,281.4 1076.4,281.4 1076.4,310.2 1047.6,310.2 1047.6,252.6 "/>
<polygon class="st3" points="1047.6,511.8 1076.4,511.8 1076.4,454.2 1105.2,454.2 1105.2,425.4 1047.6,425.4 "/>
<polygon class="st3" points="990,742.2 990,713.4 932.4,713.4 932.4,684.6 903.6,684.6 903.6,742.2 "/>
<polygon class="st4" points="1134,569.4 1105.2,569.4 1105.2,627 1076.4,627 1076.4,655.8 1134,655.8 "/>
<polygon class="st4" points="788.4,684.6 788.4,655.8 846,655.8 846,627 874.8,627 874.8,684.6 "/>
<polygon class="st4" points="2170.8,540.6 2199.6,540.6 2199.6,598.2 2228.4,598.2 2228.4,627 2170.8,627 "/>
<polygon class="st4" points="2026.8,281.4 2026.8,310.2 2084.4,310.2 2084.4,339 2113.2,339 2113.2,281.4 "/>
<polygon class="st5" points="1681.2,223.8 1681.2,195 1738.8,195 1738.8,166.2 1767.6,166.2 1767.6,223.8 "/>
<polygon class="st5" points="1278,22.2 1278,79.8 1249.2,79.8 1249.2,108.6 1306.8,108.6 1306.8,22.2 "/>
<polygon class="st5" points="2142,252.6 2142,223.8 2199.6,223.8 2199.6,195 2228.4,195 2228.4,252.6 "/>
<polygon class="st6" points="1335.6,281.4 1335.6,310.2 1278,310.2 1278,339 1249.2,339 1249.2,281.4 "/>
<polygon class="st6" points="730.8,540.6 730.8,511.8 673.2,511.8 673.2,483 644.4,483 644.4,540.6 "/>
<polygon class="st6" points="702,339 702,367.8 644.4,367.8 644.4,396.6 615.6,396.6 615.6,339 "/>
<polygon class="st6" points="2142,339 2170.8,339 2170.8,396.6 2199.6,396.6 2199.6,425.4 2142,425.4 "/>
<polygon class="st6" points="759.6,684.6 759.6,742.2 730.8,742.2 730.8,771 788.4,771 788.4,684.6 "/>
<polygon class="st6" points="2170.8,166.2 2199.6,166.2 2199.6,108.6 2228.4,108.6 2228.4,79.8 2170.8,79.8 "/>
<polygon class="st7" points="1479.6,310.2 1479.6,339 1537.2,339 1537.2,367.8 1566,367.8 1566,310.2 "/>
<polygon class="st7" points="1738.8,396.6 1767.6,396.6 1767.6,454.2 1796.4,454.2 1796.4,483 1738.8,483 "/>
<polygon class="st7" points="1450.8,195 1422,195 1422,137.4 1393.2,137.4 1393.2,108.6 1450.8,108.6 "/>
<polygon class="st7" points="1508.4,281.4 1508.4,252.6 1450.8,252.6 1450.8,223.8 1422,223.8 1422,281.4 "/>
<polygon class="st7" points="1422,684.6 1422,742.2 1393.2,742.2 1393.2,771 1450.8,771 1450.8,684.6 "/>
<polygon class="st8" points="1998,195 2026.8,195 2026.8,252.6 2055.6,252.6 2055.6,281.4 1998,281.4 "/>
<polygon class="st8" points="1162.8,742.2 1134,742.2 1134,684.6 1105.2,684.6 1105.2,655.8 1162.8,655.8 "/>
<polygon class="st8" points="1911.6,540.6 1940.4,540.6 1940.4,598.2 1969.2,598.2 1969.2,627 1911.6,627 "/>
<polygon class="st8" points="615.6,627 615.6,655.8 558,655.8 558,684.6 644.4,684.6 644.4,627 "/>
<polygon class="st8" points="1018.8,252.6 1047.6,252.6 1047.6,310.2 1076.4,310.2 1076.4,339 1018.8,339 "/>
<polygon class="st8" points="874.8,108.6 874.8,137.4 817.2,137.4 817.2,166.2 788.4,166.2 788.4,108.6 "/>
<polygon class="st9" points="586.8,684.6 586.8,713.4 644.4,713.4 644.4,742.2 673.2,742.2 673.2,684.6 "/>
<polygon class="st9" points="1076.4,137.4 1076.4,166.2 1018.8,166.2 1018.8,195 990,195 990,137.4 "/>
<polygon class="st9" points="1047.6,252.6 1076.4,252.6 1076.4,195 1105.2,195 1105.2,166.2 1047.6,166.2 "/>
<polygon class="st9" points="1537.2,569.4 1537.2,540.6 1594.8,540.6 1594.8,511.8 1623.6,511.8 1623.6,569.4 "/>
<polygon class="st10" points="1537.2,713.4 1537.2,771 1623.6,771 1623.6,742.2 1566,742.2 1566,713.4 "/>
<polygon class="st10" points="2113.2,655.8 2113.2,684.6 2170.8,684.6 2170.8,713.4 2199.6,713.4 2199.6,655.8 "/>
<polygon class="st10" points="1249.2,396.6 1220.4,396.6 1220.4,339 1191.6,339 1191.6,310.2 1249.2,310.2 "/>
<polygon class="st10" points="817.2,425.4 817.2,396.6 759.6,396.6 759.6,367.8 730.8,367.8 730.8,425.4 "/>
<polygon class="st10" points="1335.6,627 1335.6,655.8 1278,655.8 1278,684.6 1249.2,684.6 1249.2,627 "/>
<polygon class="st10" points="1249.2,454.2 1249.2,425.4 1191.6,425.4 1191.6,396.6 1162.8,396.6 1162.8,454.2 "/>
<polygon class="st11" points="1854,281.4 1882.8,281.4 1882.8,339 1911.6,339 1911.6,367.8 1854,367.8 "/>
<polygon class="st11" points="1652.4,598.2 1681.2,598.2 1681.2,655.8 1710,655.8 1710,684.6 1652.4,684.6 "/>
<polygon class="st11" points="1825.2,310.2 1854,310.2 1854,252.6 1882.8,252.6 1882.8,223.8 1825.2,223.8 "/>
<polygon class="st12" points="932.4,367.8 903.6,367.8 903.6,425.4 874.8,425.4 874.8,454.2 932.4,454.2 "/>
<polygon class="st12" points="1969.2,195 1998,195 1998,137.4 2026.8,137.4 2026.8,108.6 1969.2,108.6 "/>
<polygon class="st12" points="1450.8,454.2 1450.8,425.4 1508.4,425.4 1508.4,396.6 1537.2,396.6 1537.2,454.2 "/>
<polygon class="st12" points="2142,511.8 2142,540.6 2199.6,540.6 2199.6,569.4 2228.4,569.4 2228.4,511.8 "/>
<polygon class="st12" points="730.8,51 730.8,79.8 788.4,79.8 788.4,108.6 817.2,108.6 817.2,51 "/>
<polygon class="st13" points="1767.6,713.4 1767.6,742.2 1825.2,742.2 1825.2,771 1854,771 1854,713.4 "/>
<polygon class="st13" points="673.2,195 702,195 702,252.6 730.8,252.6 730.8,281.4 673.2,281.4 "/>
<polygon class="st13" points="1882.8,223.8 1882.8,195 1825.2,195 1825.2,166.2 1796.4,166.2 1796.4,223.8 "/>
<polygon class="st13" points="1969.2,598.2 1940.4,598.2 1940.4,540.6 1911.6,540.6 1911.6,511.8 1969.2,511.8 "/>
<polygon class="st13" points="2170.8,742.2 2170.8,713.4 2228.4,713.4 2228.4,684.6 2257.2,684.6 2257.2,742.2 "/>
<polygon class="st14" points="1220.4,166.2 1191.6,166.2 1191.6,223.8 1162.8,223.8 1162.8,252.6 1220.4,252.6 "/>
<polygon class="st14" points="1018.8,540.6 990,540.6 990,598.2 961.2,598.2 961.2,627 1018.8,627 "/>
<polygon class="st14" points="1105.2,540.6 1105.2,569.4 1162.8,569.4 1162.8,598.2 1191.6,598.2 1191.6,540.6 "/>
<polygon class="st14" points="874.8,454.2 846,454.2 846,396.6 817.2,396.6 817.2,367.8 874.8,367.8 "/>
<polygon class="st15" points="1047.6,684.6 1076.4,684.6 1076.4,627 1105.2,627 1105.2,598.2 1047.6,598.2 "/>
<polygon class="st15" points="1249.2,108.6 1249.2,137.4 1306.8,137.4 1306.8,166.2 1335.6,166.2 1335.6,108.6 "/>
<polygon class="st15" points="1249.2,713.4 1249.2,771 1335.6,771 1335.6,742.2 1278,742.2 1278,713.4 "/>
<polygon class="st16" points="2113.2,137.4 2113.2,166.2 2055.6,166.2 2055.6,195 2026.8,195 2026.8,137.4 "/>
<polygon class="st16" points="1594.8,166.2 1623.6,166.2 1623.6,223.8 1652.4,223.8 1652.4,252.6 1594.8,252.6 "/>
<polygon class="st16" points="1940.4,684.6 1940.4,771 1969.2,771 1969.2,713.4 1998,713.4 1998,684.6 "/>
<polygon class="st16" points="1076.4,684.6 1076.4,713.4 1018.8,713.4 1018.8,742.2 990,742.2 990,684.6 "/>
<polygon class="st16" points="586.8,195 586.8,223.8 644.4,223.8 644.4,252.6 673.2,252.6 673.2,195 "/>
<polygon class="st17" points="1335.6,425.4 1335.6,396.6 1393.2,396.6 1393.2,367.8 1422,367.8 1422,425.4 "/>
<polygon class="st17" points="1306.8,627 1278,627 1278,569.4 1249.2,569.4 1249.2,540.6 1306.8,540.6 "/>
<polygon class="st17" points="788.4,339 788.4,367.8 730.8,367.8 730.8,396.6 702,396.6 702,339 "/>
<polygon class="st17" points="2055.6,511.8 2084.4,511.8 2084.4,454.2 2113.2,454.2 2113.2,425.4 2055.6,425.4 "/>
<polygon class="st17" points="1940.4,454.2 1940.4,483 1998,483 1998,511.8 2026.8,511.8 2026.8,454.2 "/>
<polygon class="st17" points="788.4,569.4 788.4,540.6 846,540.6 846,511.8 874.8,511.8 874.8,569.4 "/>
<polygon class="st18" points="846,137.4 874.8,137.4 874.8,195 903.6,195 903.6,223.8 846,223.8 "/>
<polygon class="st18" points="990,51 990,79.8 1047.6,79.8 1047.6,108.6 1076.4,108.6 1076.4,51 "/>
<polygon class="st18" points="1566,79.8 1566,108.6 1623.6,108.6 1623.6,137.4 1652.4,137.4 1652.4,79.8 "/>
<polygon class="st18" points="1594.8,310.2 1594.8,281.4 1537.2,281.4 1537.2,252.6 1508.4,252.6 1508.4,310.2 "/>
<polygon class="st18" points="817.2,252.6 817.2,223.8 759.6,223.8 759.6,195 730.8,195 730.8,252.6 "/>
<polygon class="st18" points="1105.2,569.4 1105.2,540.6 1047.6,540.6 1047.6,511.8 1018.8,511.8 1018.8,569.4 "/>
<polygon class="st19" points="1220.4,79.8 1249.2,79.8 1249.2,137.4 1278,137.4 1278,166.2 1220.4,166.2 "/>
<polygon class="st19" points="1998,310.2 1998,339 1940.4,339 1940.4,367.8 1911.6,367.8 1911.6,310.2 "/>
<polygon class="st19" points="1335.6,195 1335.6,223.8 1393.2,223.8 1393.2,252.6 1422,252.6 1422,195 "/>
<polygon class="st20" points="1249.2,713.4 1249.2,684.6 1306.8,684.6 1306.8,655.8 1335.6,655.8 1335.6,713.4 "/>
<polygon class="st20" points="1652.4,252.6 1681.2,252.6 1681.2,195 1710,195 1710,166.2 1652.4,166.2 "/>
<polygon class="st20" points="1738.8,396.6 1738.8,367.8 1681.2,367.8 1681.2,339 1652.4,339 1652.4,396.6 "/>
<polygon class="st20" points="1508.4,454.2 1508.4,483 1566,483 1566,511.8 1594.8,511.8 1594.8,454.2 "/>
<polygon class="st21" points="759.6,454.2 759.6,483 817.2,483 817.2,511.8 846,511.8 846,454.2 "/>
<polygon class="st21" points="2026.8,511.8 2026.8,540.6 2084.4,540.6 2084.4,569.4 2113.2,569.4 2113.2,511.8 "/>
<polygon class="st21" points="961.2,281.4 961.2,310.2 903.6,310.2 903.6,339 874.8,339 874.8,281.4 "/>
<polygon class="st21" points="1162.8,252.6 1162.8,223.8 1105.2,223.8 1105.2,195 1076.4,195 1076.4,252.6 "/>
<polygon class="st21" points="932.4,425.4 961.2,425.4 961.2,367.8 990,367.8 990,339 932.4,339 "/>
<polygon class="st21" points="1566,108.6 1537.2,108.6 1537.2,166.2 1508.4,166.2 1508.4,195 1566,195 "/>
<polygon class="st22" points="673.2,713.4 673.2,771 702,771 702,742.2 759.6,742.2 759.6,713.4 "/>
<polygon class="st22" points="846,223.8 817.2,223.8 817.2,281.4 788.4,281.4 788.4,310.2 846,310.2 "/>
<polygon class="st22" points="1969.2,166.2 1969.2,195 1911.6,195 1911.6,223.8 1882.8,223.8 1882.8,166.2 "/>
<polygon class="st22" points="2228.4,396.6 2228.4,483 2286,483 2286,454.2 2257.2,454.2 2257.2,396.6 "/>
<polygon class="st22" points="1162.8,281.4 1162.8,252.6 1220.4,252.6 1220.4,223.8 1249.2,223.8 1249.2,281.4 "/>
<polygon class="st23" points="1796.4,310.2 1825.2,310.2 1825.2,367.8 1854,367.8 1854,396.6 1796.4,396.6 "/>
<polygon class="st23" points="558,281.4 558,339 586.8,339 586.8,310.2 644.4,310.2 644.4,281.4 "/>
<polygon class="st23" points="1278,569.4 1278,598.2 1220.4,598.2 1220.4,627 1191.6,627 1191.6,569.4 "/>
<polygon class="st23" points="1882.8,684.6 1882.8,771 1911.6,771 1911.6,713.4 1940.4,713.4 1940.4,684.6 "/>
<polygon class="st23" points="961.2,483 961.2,454.2 1018.8,454.2 1018.8,425.4 1047.6,425.4 1047.6,483 "/>
<polygon class="st23" points="644.4,425.4 615.6,425.4 615.6,483 586.8,483 586.8,511.8 644.4,511.8 "/>
<polygon class="st24" points="1796.4,627 1767.6,627 1767.6,684.6 1738.8,684.6 1738.8,713.4 1796.4,713.4 "/>
<polygon class="st24" points="1566,655.8 1566,627 1623.6,627 1623.6,598.2 1652.4,598.2 1652.4,655.8 "/>
<polygon class="st24" points="874.8,713.4 903.6,713.4 903.6,655.8 932.4,655.8 932.4,627 874.8,627 "/>
<polygon class="st24" points="990,51 961.2,51 961.2,108.6 932.4,108.6 932.4,137.4 990,137.4 "/>
<polygon class="st24" points="932.4,195 932.4,223.8 990,223.8 990,252.6 1018.8,252.6 1018.8,195 "/>
<polygon class="st25" points="2199.6,425.4 2228.4,425.4 2228.4,367.8 2257.2,367.8 2257.2,339 2199.6,339 "/>
<polygon class="st25" points="1911.6,483 1911.6,454.2 1854,454.2 1854,425.4 1825.2,425.4 1825.2,483 "/>
<polygon class="st25" points="1796.4,511.8 1796.4,483 1738.8,483 1738.8,454.2 1710,454.2 1710,511.8 "/>
<polygon class="st25" points="702,483 702,511.8 759.6,511.8 759.6,540.6 788.4,540.6 788.4,483 "/>
<polygon class="st25" points="874.8,454.2 903.6,454.2 903.6,511.8 932.4,511.8 932.4,540.6 874.8,540.6 "/>
<polygon class="st25" points="1335.6,223.8 1335.6,195 1278,195 1278,166.2 1249.2,166.2 1249.2,223.8 "/>
<polygon class="st25" points="730.8,79.8 759.6,79.8 759.6,137.4 788.4,137.4 788.4,166.2 730.8,166.2 "/>
<polygon class="st26" points="2228.4,166.2 2228.4,252.6 2257.2,252.6 2257.2,195 2286,195 2286,166.2 "/>
<polygon class="st26" points="1479.6,51 1479.6,79.8 1422,79.8 1422,108.6 1393.2,108.6 1393.2,51 "/>
<polygon class="st26" points="1681.2,483 1710,483 1710,540.6 1738.8,540.6 1738.8,569.4 1681.2,569.4 "/>
<polygon class="st27" points="1479.6,569.4 1508.4,569.4 1508.4,511.8 1537.2,511.8 1537.2,483 1479.6,483 "/>
<polygon class="st27" points="2199.6,598.2 2199.6,655.8 2228.4,655.8 2228.4,627 2286,627 2286,598.2 "/>
<polygon class="st28" points="759.6,310.2 759.6,339 817.2,339 817.2,367.8 846,367.8 846,310.2 "/>
<polygon class="st28" points="817.2,598.2 817.2,569.4 874.8,569.4 874.8,540.6 903.6,540.6 903.6,598.2 "/>
<polygon class="st28" points="1105.2,540.6 1105.2,511.8 1162.8,511.8 1162.8,483 1191.6,483 1191.6,540.6 "/>
<polygon class="st29" points="702,166.2 702,137.4 644.4,137.4 644.4,108.6 615.6,108.6 615.6,166.2 "/>
<polygon class="st29" points="2228.4,51 2228.4,137.4 2286,137.4 2286,108.6 2257.2,108.6 2257.2,51 "/>
<polygon class="st29" points="1998,367.8 1998,339 2055.6,339 2055.6,310.2 2084.4,310.2 2084.4,367.8 "/>
<polygon class="st29" points="1854,511.8 1854,483 1911.6,483 1911.6,454.2 1940.4,454.2 1940.4,511.8 "/>
<polygon class="st29" points="903.6,627 932.4,627 932.4,569.4 961.2,569.4 961.2,540.6 903.6,540.6 "/>
<polygon class="st29" points="932.4,454.2 961.2,454.2 961.2,511.8 990,511.8 990,540.6 932.4,540.6 "/>
<polygon class="st29" points="1738.8,454.2 1738.8,425.4 1681.2,425.4 1681.2,396.6 1652.4,396.6 1652.4,454.2 "/>
<polygon class="st30" points="730.8,540.6 759.6,540.6 759.6,598.2 788.4,598.2 788.4,627 730.8,627 "/>
<polygon class="st30" points="1594.8,684.6 1594.8,713.4 1623.6,713.4 1623.6,771 1652.4,771 1652.4,684.6 "/>
<polygon class="st30" points="990,367.8 990,396.6 1047.6,396.6 1047.6,425.4 1076.4,425.4 1076.4,367.8 "/>
<polygon class="st30" points="1623.6,223.8 1652.4,223.8 1652.4,166.2 1681.2,166.2 1681.2,137.4 1623.6,137.4 "/>
<polygon class="st30" points="1364.4,396.6 1364.4,367.8 1306.8,367.8 1306.8,339 1278,339 1278,396.6 "/>
<polygon class="st30" points="558,108.6 558,137.4 586.8,137.4 586.8,195 615.6,195 615.6,108.6 "/>
<polygon class="st30" points="2228.4,511.8 2228.4,483 2170.8,483 2170.8,454.2 2142,454.2 2142,511.8 "/>
<polygon class="st30" points="1364.4,483 1364.4,511.8 1422,511.8 1422,540.6 1450.8,540.6 1450.8,483 "/>
<polygon class="st30" points="702,108.6 730.8,108.6 730.8,166.2 759.6,166.2 759.6,195 702,195 "/>
<polygon class="st30" points="1479.6,137.4 1508.4,137.4 1508.4,79.8 1537.2,79.8 1537.2,51 1479.6,51 "/>
<polygon class="st30" points="1076.4,396.6 1076.4,425.4 1134,425.4 1134,454.2 1162.8,454.2 1162.8,396.6 "/>
<polygon class="st29" points="990,166.2 990,137.4 932.4,137.4 932.4,108.6 903.6,108.6 903.6,166.2 "/>
<polygon class="st29" points="558,454.2 558,540.6 615.6,540.6 615.6,511.8 586.8,511.8 586.8,454.2 "/>
<polygon class="st29" points="1882.8,569.4 1911.6,569.4 1911.6,627 1940.4,627 1940.4,655.8 1882.8,655.8 "/>
<polygon class="st29" points="1105.2,310.2 1105.2,339 1162.8,339 1162.8,367.8 1191.6,367.8 1191.6,310.2 "/>
<polygon class="st29" points="2084.4,627 2113.2,627 2113.2,684.6 2142,684.6 2142,713.4 2084.4,713.4 "/>
<polygon class="st28" points="702,454.2 673.2,454.2 673.2,396.6 644.4,396.6 644.4,367.8 702,367.8 "/>
<polygon class="st28" points="730.8,684.6 702,684.6 702,627 673.2,627 673.2,598.2 730.8,598.2 "/>
<polygon class="st28" points="1393.2,396.6 1364.4,396.6 1364.4,339 1335.6,339 1335.6,310.2 1393.2,310.2 "/>
<polygon class="st28" points="1940.4,655.8 1940.4,684.6 1882.8,684.6 1882.8,713.4 1854,713.4 1854,655.8 "/>
<polygon class="st28" points="1940.4,22.2 1940.4,108.6 1998,108.6 1998,79.8 1969.2,79.8 1969.2,22.2 "/>
<polygon class="st28" points="874.8,223.8 874.8,252.6 932.4,252.6 932.4,281.4 961.2,281.4 961.2,223.8 "/>
<polygon class="st28" points="1018.8,713.4 1018.8,742.2 961.2,742.2 961.2,771 1047.6,771 1047.6,713.4 "/>
<polygon class="st27" points="1537.2,655.8 1508.4,655.8 1508.4,713.4 1479.6,713.4 1479.6,742.2 1537.2,742.2 "/>
<polygon class="st27" points="2084.4,339 2113.2,339 2113.2,396.6 2142,396.6 2142,425.4 2084.4,425.4 "/>
<polygon class="st27" points="2113.2,713.4 2113.2,771 2199.6,771 2199.6,742.2 2142,742.2 2142,713.4 "/>
<polygon class="st27" points="1969.2,713.4 1969.2,771 2055.6,771 2055.6,742.2 1998,742.2 1998,713.4 "/>
<polygon class="st26" points="2026.8,713.4 1998,713.4 1998,655.8 1969.2,655.8 1969.2,627 2026.8,627 "/>
<polygon class="st26" points="2113.2,281.4 2142,281.4 2142,223.8 2170.8,223.8 2170.8,195 2113.2,195 "/>
<polygon class="st26" points="932.4,627 932.4,655.8 990,655.8 990,684.6 1018.8,684.6 1018.8,627 "/>
<polygon class="st26" points="1738.8,108.6 1738.8,79.8 1796.4,79.8 1796.4,51 1825.2,51 1825.2,108.6 "/>
<polygon class="st25" points="1911.6,454.2 1940.4,454.2 1940.4,396.6 1969.2,396.6 1969.2,367.8 1911.6,367.8 "/>
<polygon class="st25" points="932.4,454.2 932.4,425.4 990,425.4 990,396.6 1018.8,396.6 1018.8,454.2 "/>
<polygon class="st25" points="1537.2,569.4 1537.2,598.2 1594.8,598.2 1594.8,627 1623.6,627 1623.6,569.4 "/>
<polygon class="st25" points="1450.8,684.6 1450.8,655.8 1393.2,655.8 1393.2,627 1364.4,627 1364.4,684.6 "/>
<polygon class="st25" points="2228.4,655.8 2228.4,684.6 2257.2,684.6 2257.2,742.2 2286,742.2 2286,655.8 "/>
<polygon class="st24" points="1825.2,684.6 1796.4,684.6 1796.4,627 1767.6,627 1767.6,598.2 1825.2,598.2 "/>
<polygon class="st24" points="903.6,22.2 903.6,108.6 932.4,108.6 932.4,51 961.2,51 961.2,22.2 "/>
<polygon class="st24" points="2228.4,339 2228.4,310.2 2170.8,310.2 2170.8,281.4 2142,281.4 2142,339 "/>
<polygon class="st24" points="2142,540.6 2113.2,540.6 2113.2,483 2084.4,483 2084.4,454.2 2142,454.2 "/>
<polygon class="st24" points="2084.4,684.6 2055.6,684.6 2055.6,627 2026.8,627 2026.8,598.2 2084.4,598.2 "/>
<polygon class="st23" points="2113.2,195 2084.4,195 2084.4,252.6 2055.6,252.6 2055.6,281.4 2113.2,281.4 "/>
<polygon class="st23" points="1479.6,310.2 1450.8,310.2 1450.8,367.8 1422,367.8 1422,396.6 1479.6,396.6 "/>
<polygon class="st23" points="903.6,166.2 874.8,166.2 874.8,108.6 846,108.6 846,79.8 903.6,79.8 "/>
<polygon class="st23" points="1191.6,396.6 1191.6,367.8 1134,367.8 1134,339 1105.2,339 1105.2,396.6 "/>
<polygon class="st22" points="1738.8,108.6 1738.8,79.8 1681.2,79.8 1681.2,51 1652.4,51 1652.4,108.6 "/>
<polygon class="st22" points="1882.8,540.6 1854,540.6 1854,598.2 1825.2,598.2 1825.2,627 1882.8,627 "/>
<polygon class="st22" points="1767.6,310.2 1796.4,310.2 1796.4,252.6 1825.2,252.6 1825.2,223.8 1767.6,223.8 "/>
<polygon class="st21" points="2026.8,540.6 1998,540.6 1998,598.2 1969.2,598.2 1969.2,627 2026.8,627 "/>
<polygon class="st21" points="1508.4,137.4 1479.6,137.4 1479.6,195 1450.8,195 1450.8,223.8 1508.4,223.8 "/>
<polygon class="st21" points="1911.6,367.8 1882.8,367.8 1882.8,425.4 1854,425.4 1854,454.2 1911.6,454.2 "/>
<polygon class="st21" points="1566,223.8 1594.8,223.8 1594.8,166.2 1623.6,166.2 1623.6,137.4 1566,137.4 "/>
<polygon class="st21" points="1796.4,454.2 1767.6,454.2 1767.6,396.6 1738.8,396.6 1738.8,367.8 1796.4,367.8 "/>
<polygon class="st21" points="1508.4,281.4 1508.4,310.2 1450.8,310.2 1450.8,339 1422,339 1422,281.4 "/>
<polygon class="st20" points="1710,655.8 1738.8,655.8 1738.8,713.4 1767.6,713.4 1767.6,742.2 1710,742.2 "/>
<polygon class="st20" points="846,339 874.8,339 874.8,281.4 903.6,281.4 903.6,252.6 846,252.6 "/>
<polygon class="st20" points="1278,425.4 1278,396.6 1220.4,396.6 1220.4,367.8 1191.6,367.8 1191.6,425.4 "/>
<polygon class="st20" points="1047.6,713.4 1047.6,742.2 1105.2,742.2 1105.2,771 1134,771 1134,713.4 "/>
<polygon class="st19" points="1249.2,223.8 1249.2,252.6 1306.8,252.6 1306.8,281.4 1335.6,281.4 1335.6,223.8 "/>
<polygon class="st19" points="1076.4,79.8 1105.2,79.8 1105.2,137.4 1134,137.4 1134,166.2 1076.4,166.2 "/>
<polygon class="st19" points="1681.2,252.6 1710,252.6 1710,310.2 1738.8,310.2 1738.8,339 1681.2,339 "/>
<polygon class="st19" points="1306.8,425.4 1306.8,454.2 1364.4,454.2 1364.4,483 1393.2,483 1393.2,425.4 "/>
<polygon class="st19" points="2026.8,655.8 2055.6,655.8 2055.6,713.4 2084.4,713.4 2084.4,742.2 2026.8,742.2 "/>
<polygon class="st19" points="702,569.4 702,598.2 644.4,598.2 644.4,627 615.6,627 615.6,569.4 "/>
<polygon class="st18" points="586.8,339 586.8,396.6 558,396.6 558,425.4 615.6,425.4 615.6,339 "/>
<polygon class="st18" points="2257.2,511.8 2228.4,511.8 2228.4,569.4 2199.6,569.4 2199.6,598.2 2257.2,598.2 "/>
<polygon class="st18" points="1278,713.4 1278,742.2 1335.6,742.2 1335.6,771 1364.4,771 1364.4,713.4 "/>
<polygon class="st18" points="1134,108.6 1134,137.4 1191.6,137.4 1191.6,166.2 1220.4,166.2 1220.4,108.6 "/>
<polygon class="st17" points="1335.6,166.2 1364.4,166.2 1364.4,108.6 1393.2,108.6 1393.2,79.8 1335.6,79.8 "/>
<polygon class="st17" points="1249.2,540.6 1220.4,540.6 1220.4,483 1191.6,483 1191.6,454.2 1249.2,454.2 "/>
<polygon class="st17" points="1911.6,79.8 1940.4,79.8 1940.4,137.4 1969.2,137.4 1969.2,166.2 1911.6,166.2 "/>
<polygon class="st16" points="1767.6,22.2 1767.6,79.8 1738.8,79.8 1738.8,108.6 1796.4,108.6 1796.4,22.2 "/>
<polygon class="st16" points="1537.2,195 1566,195 1566,252.6 1594.8,252.6 1594.8,281.4 1537.2,281.4 "/>
<polygon class="st16" points="1450.8,396.6 1422,396.6 1422,454.2 1393.2,454.2 1393.2,483 1450.8,483 "/>
<polygon class="st16" points="2055.6,598.2 2055.6,569.4 2113.2,569.4 2113.2,540.6 2142,540.6 2142,598.2 "/>
<polygon class="st16" points="586.8,713.4 586.8,771 673.2,771 673.2,742.2 615.6,742.2 615.6,713.4 "/>
<polygon class="st15" points="1738.8,166.2 1738.8,137.4 1796.4,137.4 1796.4,108.6 1825.2,108.6 1825.2,166.2 "/>
<polygon class="st15" points="615.6,22.2 615.6,79.8 586.8,79.8 586.8,108.6 644.4,108.6 644.4,22.2 "/>
<polygon class="st15" points="1623.6,655.8 1623.6,684.6 1566,684.6 1566,713.4 1537.2,713.4 1537.2,655.8 "/>
<polygon class="st15" points="874.8,598.2 874.8,627 817.2,627 817.2,655.8 788.4,655.8 788.4,598.2 "/>
<polygon class="st15" points="817.2,684.6 817.2,713.4 846,713.4 846,771 874.8,771 874.8,684.6 "/>
<polygon class="st14" points="2199.6,108.6 2199.6,166.2 2286,166.2 2286,137.4 2228.4,137.4 2228.4,108.6 "/>
<polygon class="st14" points="1393.2,223.8 1364.4,223.8 1364.4,281.4 1335.6,281.4 1335.6,310.2 1393.2,310.2 "/>
<polygon class="st14" points="1105.2,425.4 1134,425.4 1134,483 1162.8,483 1162.8,511.8 1105.2,511.8 "/>
<polygon class="st14" points="1566,339 1566,310.2 1623.6,310.2 1623.6,281.4 1652.4,281.4 1652.4,339 "/>
<polygon class="st14" points="1882.8,108.6 1854,108.6 1854,166.2 1825.2,166.2 1825.2,195 1882.8,195 "/>
<polygon class="st14" points="1998,367.8 1969.2,367.8 1969.2,425.4 1940.4,425.4 1940.4,454.2 1998,454.2 "/>
<polygon class="st13" points="1566,454.2 1537.2,454.2 1537.2,396.6 1508.4,396.6 1508.4,367.8 1566,367.8 "/>
<polygon class="st13" points="2228.4,483 2228.4,511.8 2257.2,511.8 2257.2,569.4 2286,569.4 2286,483 "/>
<polygon class="st12" points="1479.6,713.4 1450.8,713.4 1450.8,655.8 1422,655.8 1422,627 1479.6,627 "/>
<polygon class="st12" points="2026.8,454.2 2055.6,454.2 2055.6,396.6 2084.4,396.6 2084.4,367.8 2026.8,367.8 "/>
<polygon class="st12" points="1767.6,598.2 1767.6,569.4 1825.2,569.4 1825.2,540.6 1854,540.6 1854,598.2 "/>
<polygon class="st12" points="1364.4,22.2 1364.4,79.8 1335.6,79.8 1335.6,108.6 1393.2,108.6 1393.2,22.2 "/>
<polygon class="st12" points="673.2,483 673.2,454.2 730.8,454.2 730.8,425.4 759.6,425.4 759.6,483 "/>
<polygon class="st12" points="1652.4,540.6 1681.2,540.6 1681.2,483 1710,483 1710,454.2 1652.4,454.2 "/>
<polygon class="st12" points="2055.6,22.2 2055.6,79.8 2142,79.8 2142,51 2084.4,51 2084.4,22.2 "/>
<polygon class="st11" points="846,367.8 846,339 903.6,339 903.6,310.2 932.4,310.2 932.4,367.8 "/>
<polygon class="st11" points="1335.6,684.6 1335.6,713.4 1393.2,713.4 1393.2,742.2 1422,742.2 1422,684.6 "/>
<polygon class="st11" points="961.2,339 990,339 990,281.4 1018.8,281.4 1018.8,252.6 961.2,252.6 "/>
<polygon class="st11" points="1652.4,684.6 1652.4,713.4 1681.2,713.4 1681.2,771 1710,771 1710,684.6 "/>
<polygon class="st10" points="1969.2,223.8 1998,223.8 1998,281.4 2026.8,281.4 2026.8,310.2 1969.2,310.2 "/>
<polygon class="st10" points="759.6,713.4 759.6,684.6 702,684.6 702,655.8 673.2,655.8 673.2,713.4 "/>
<polygon class="st9" points="2084.4,627 2084.4,598.2 2142,598.2 2142,569.4 2170.8,569.4 2170.8,627 "/>
<polygon class="st9" points="1681.2,252.6 1681.2,281.4 1623.6,281.4 1623.6,310.2 1594.8,310.2 1594.8,252.6 "/>
<polygon class="st9" points="1162.8,684.6 1162.8,771 1220.4,771 1220.4,742.2 1191.6,742.2 1191.6,684.6 "/>
<polygon class="st9" points="1508.4,339 1479.6,339 1479.6,396.6 1450.8,396.6 1450.8,425.4 1508.4,425.4 "/>
<polygon class="st9" points="1450.8,252.6 1450.8,223.8 1508.4,223.8 1508.4,195 1537.2,195 1537.2,252.6 "/>
<polygon class="st8" points="702,569.4 702,598.2 644.4,598.2 644.4,627 615.6,627 615.6,569.4 "/>
<polygon class="st7" points="1306.8,627 1306.8,598.2 1364.4,598.2 1364.4,569.4 1393.2,569.4 1393.2,627 "/>
<polygon class="st7" points="2142,166.2 2113.2,166.2 2113.2,108.6 2084.4,108.6 2084.4,79.8 2142,79.8 "/>
<polygon class="st7" points="1105.2,252.6 1076.4,252.6 1076.4,310.2 1047.6,310.2 1047.6,339 1105.2,339 "/>
<polygon class="st7" points="615.6,396.6 615.6,425.4 558,425.4 558,454.2 644.4,454.2 644.4,396.6 "/>
<polygon class="st7" points="2026.8,454.2 2026.8,425.4 1969.2,425.4 1969.2,396.6 1940.4,396.6 1940.4,454.2 "/>
<polygon class="st7" points="1422,742.2 1422,713.4 1364.4,713.4 1364.4,684.6 1335.6,684.6 1335.6,742.2 "/>
<polygon class="st6" points="1047.6,223.8 1047.6,195 990,195 990,166.2 961.2,166.2 961.2,223.8 "/>
<polygon class="st6" points="1105.2,713.4 1105.2,742.2 1162.8,742.2 1162.8,771 1191.6,771 1191.6,713.4 "/>
<polygon class="st6" points="615.6,713.4 615.6,771 702,771 702,742.2 644.4,742.2 644.4,713.4 "/>
<polygon class="st6" points="1422,483 1422,454.2 1479.6,454.2 1479.6,425.4 1508.4,425.4 1508.4,483 "/>
<polygon class="st5" points="1364.4,223.8 1364.4,252.6 1306.8,252.6 1306.8,281.4 1278,281.4 1278,223.8 "/>
<polygon class="st5" points="2084.4,195 2084.4,166.2 2026.8,166.2 2026.8,137.4 1998,137.4 1998,195 "/>
<polygon class="st5" points="1479.6,252.6 1508.4,252.6 1508.4,310.2 1537.2,310.2 1537.2,339 1479.6,339 "/>
<polygon class="st5" points="1191.6,425.4 1191.6,396.6 1249.2,396.6 1249.2,367.8 1278,367.8 1278,425.4 "/>
<polygon class="st5" points="2113.2,598.2 2142,598.2 2142,655.8 2170.8,655.8 2170.8,684.6 2113.2,684.6 "/>
<polygon class="st4" points="1105.2,252.6 1076.4,252.6 1076.4,195 1047.6,195 1047.6,166.2 1105.2,166.2 "/>
<polygon class="st4" points="2055.6,511.8 2026.8,511.8 2026.8,569.4 1998,569.4 1998,598.2 2055.6,598.2 "/>
<polygon class="st4" points="1191.6,483 1162.8,483 1162.8,540.6 1134,540.6 1134,569.4 1191.6,569.4 "/>
<polygon class="st4" points="1335.6,166.2 1335.6,195 1393.2,195 1393.2,223.8 1422,223.8 1422,166.2 "/>
<polygon class="st4" points="1940.4,51 1911.6,51 1911.6,108.6 1882.8,108.6 1882.8,137.4 1940.4,137.4 "/>
<polygon class="st4" points="1825.2,51 1825.2,79.8 1767.6,79.8 1767.6,108.6 1738.8,108.6 1738.8,51 "/>
<polygon class="st3" points="903.6,425.4 874.8,425.4 874.8,483 846,483 846,511.8 903.6,511.8 "/>
<polygon class="st3" points="1594.8,569.4 1566,569.4 1566,511.8 1537.2,511.8 1537.2,483 1594.8,483 "/>
<polygon class="st3" points="1191.6,339 1191.6,367.8 1134,367.8 1134,396.6 1105.2,396.6 1105.2,339 "/>
<polygon class="st3" points="1796.4,108.6 1796.4,137.4 1854,137.4 1854,166.2 1882.8,166.2 1882.8,108.6 "/>
<polygon class="st3" points="1969.2,137.4 1969.2,166.2 1911.6,166.2 1911.6,195 1882.8,195 1882.8,137.4 "/>
<polygon class="st3" points="1681.2,281.4 1681.2,310.2 1623.6,310.2 1623.6,339 1594.8,339 1594.8,281.4 "/>
<polygon class="st2" points="1134,252.6 1134,223.8 1191.6,223.8 1191.6,195 1220.4,195 1220.4,252.6 "/>
<polygon class="st2" points="2257.2,598.2 2228.4,598.2 2228.4,540.6 2199.6,540.6 2199.6,511.8 2257.2,511.8 "/>
<polygon class="st2" points="1047.6,511.8 1047.6,540.6 1105.2,540.6 1105.2,569.4 1134,569.4 1134,511.8 "/>
<polygon class="st2" points="961.2,569.4 990,569.4 990,511.8 1018.8,511.8 1018.8,483 961.2,483 "/>
<polygon class="st2" points="1105.2,108.6 1105.2,137.4 1047.6,137.4 1047.6,166.2 1018.8,166.2 1018.8,108.6 "/>
<polygon class="st2" points="990,22.2 990,79.8 1076.4,79.8 1076.4,51 1018.8,51 1018.8,22.2 "/>
<polygon class="st1" points="2026.8,281.4 2055.6,281.4 2055.6,339 2084.4,339 2084.4,367.8 2026.8,367.8 "/>
<polygon class="st1" points="1508.4,51 1537.2,51 1537.2,108.6 1566,108.6 1566,137.4 1508.4,137.4 "/>
<polygon class="st1" points="1738.8,396.6 1710,396.6 1710,339 1681.2,339 1681.2,310.2 1738.8,310.2 "/>
<polygon class="st1" points="644.4,281.4 644.4,310.2 702,310.2 702,339 730.8,339 730.8,281.4 "/>
<polygon class="st0" points="1911.6,569.4 1911.6,540.6 1969.2,540.6 1969.2,511.8 1998,511.8 1998,569.4 "/>
<polygon class="st0" points="1767.6,223.8 1738.8,223.8 1738.8,281.4 1710,281.4 1710,310.2 1767.6,310.2 "/>
<polygon class="st0" points="1623.6,742.2 1652.4,742.2 1652.4,684.6 1681.2,684.6 1681.2,655.8 1623.6,655.8 "/>
<polygon class="st0" points="2199.6,79.8 2228.4,79.8 2228.4,137.4 2257.2,137.4 2257.2,166.2 2199.6,166.2 "/>
<polygon class="st0" points="702,569.4 702,598.2 759.6,598.2 759.6,627 788.4,627 788.4,569.4 "/>
<polygon class="st0" points="932.4,22.2 932.4,79.8 903.6,79.8 903.6,108.6 961.2,108.6 961.2,22.2 "/>
<polygon class="st0" points="2199.6,166.2 2199.6,223.8 2286,223.8 2286,195 2228.4,195 2228.4,166.2 "/>
<polygon class="st0" points="1018.8,166.2 1018.8,137.4 961.2,137.4 961.2,108.6 932.4,108.6 932.4,166.2 "/>
<polygon points="1249.2,713.4 1220.4,713.4 1220.4,655.8 1191.6,655.8 1191.6,627 1249.2,627 "/>
<polygon points="1940.4,425.4 1911.6,425.4 1911.6,483 1882.8,483 1882.8,511.8 1940.4,511.8 "/>
<polygon points="1796.4,627 1796.4,598.2 1738.8,598.2 1738.8,569.4 1710,569.4 1710,627 "/>
<polygon points="2113.2,483 2142,483 2142,540.6 2170.8,540.6 2170.8,569.4 2113.2,569.4 "/>
<polygon points="2113.2,655.8 2084.4,655.8 2084.4,598.2 2055.6,598.2 2055.6,569.4 2113.2,569.4 "/>
<polygon points="961.2,627 961.2,655.8 1018.8,655.8 1018.8,684.6 1047.6,684.6 1047.6,627 "/>
<polygon points="2084.4,684.6 2055.6,684.6 2055.6,627 2026.8,627 2026.8,598.2 2084.4,598.2 "/>
<polygon points="1825.2,598.2 1825.2,569.4 1882.8,569.4 1882.8,540.6 1911.6,540.6 1911.6,598.2 "/>
<polygon class="st0" points="1882.8,454.2 1854,454.2 1854,511.8 1825.2,511.8 1825.2,540.6 1882.8,540.6 "/>
<polygon class="st0" points="2055.6,713.4 2026.8,713.4 2026.8,655.8 1998,655.8 1998,627 2055.6,627 "/>
<polygon class="st0" points="874.8,252.6 846,252.6 846,195 817.2,195 817.2,166.2 874.8,166.2 "/>
<polygon class="st0" points="1566,655.8 1537.2,655.8 1537.2,598.2 1508.4,598.2 1508.4,569.4 1566,569.4 "/>
<polygon class="st0" points="1710,339 1710,367.8 1652.4,367.8 1652.4,396.6 1623.6,396.6 1623.6,339 "/>
<polygon class="st0" points="903.6,281.4 903.6,252.6 961.2,252.6 961.2,223.8 990,223.8 990,281.4 "/>
<polygon class="st1" points="1450.8,79.8 1422,79.8 1422,137.4 1393.2,137.4 1393.2,166.2 1450.8,166.2 "/>
<polygon class="st1" points="1710,252.6 1681.2,252.6 1681.2,195 1652.4,195 1652.4,166.2 1710,166.2 "/>
<polygon class="st1" points="2113.2,223.8 2084.4,223.8 2084.4,166.2 2055.6,166.2 2055.6,137.4 2113.2,137.4 "/>
<polygon class="st1" points="1854,425.4 1825.2,425.4 1825.2,483 1796.4,483 1796.4,511.8 1854,511.8 "/>
<polygon class="st1" points="961.2,684.6 961.2,771 1018.8,771 1018.8,742.2 990,742.2 990,684.6 "/>
<polygon class="st1" points="1220.4,684.6 1220.4,655.8 1162.8,655.8 1162.8,627 1134,627 1134,684.6 "/>
<polygon class="st2" points="558,223.8 558,310.2 615.6,310.2 615.6,281.4 586.8,281.4 586.8,223.8 "/>
<polygon class="st2" points="1306.8,339 1335.6,339 1335.6,281.4 1364.4,281.4 1364.4,252.6 1306.8,252.6 "/>
<polygon class="st2" points="1220.4,166.2 1191.6,166.2 1191.6,108.6 1162.8,108.6 1162.8,79.8 1220.4,79.8 "/>
<polygon class="st2" points="1623.6,252.6 1623.6,223.8 1566,223.8 1566,195 1537.2,195 1537.2,252.6 "/>
<polygon class="st2" points="586.8,310.2 615.6,310.2 615.6,367.8 644.4,367.8 644.4,396.6 586.8,396.6 "/>
<polygon class="st3" points="1854,655.8 1825.2,655.8 1825.2,713.4 1796.4,713.4 1796.4,742.2 1854,742.2 "/>
<polygon class="st3" points="1710,540.6 1710,511.8 1767.6,511.8 1767.6,483 1796.4,483 1796.4,540.6 "/>
<polygon class="st3" points="1191.6,713.4 1191.6,771 1278,771 1278,742.2 1220.4,742.2 1220.4,713.4 "/>
<polygon class="st3" points="2026.8,396.6 2055.6,396.6 2055.6,454.2 2084.4,454.2 2084.4,483 2026.8,483 "/>
<polygon class="st3" points="1710,483 1681.2,483 1681.2,425.4 1652.4,425.4 1652.4,396.6 1710,396.6 "/>
<polygon class="st4" points="817.2,454.2 817.2,425.4 759.6,425.4 759.6,396.6 730.8,396.6 730.8,454.2 "/>
<polygon class="st4" points="1393.2,483 1393.2,454.2 1335.6,454.2 1335.6,425.4 1306.8,425.4 1306.8,483 "/>
<polygon class="st4" points="961.2,166.2 961.2,195 903.6,195 903.6,223.8 874.8,223.8 874.8,166.2 "/>
<polygon class="st5" points="1681.2,511.8 1652.4,511.8 1652.4,454.2 1623.6,454.2 1623.6,425.4 1681.2,425.4 "/>
<polygon class="st5" points="1393.2,22.2 1393.2,79.8 1479.6,79.8 1479.6,51 1422,51 1422,22.2 "/>
<polygon class="st5" points="1018.8,310.2 990,310.2 990,367.8 961.2,367.8 961.2,396.6 1018.8,396.6 "/>
<polygon class="st5" points="1882.8,281.4 1882.8,252.6 1940.4,252.6 1940.4,223.8 1969.2,223.8 1969.2,281.4 "/>
<polygon class="st5" points="1882.8,252.6 1854,252.6 1854,310.2 1825.2,310.2 1825.2,339 1882.8,339 "/>
<polygon class="st5" points="644.4,684.6 644.4,713.4 702,713.4 702,742.2 730.8,742.2 730.8,684.6 "/>
<polygon class="st6" points="817.2,22.2 817.2,79.8 903.6,79.8 903.6,51 846,51 846,22.2 "/>
<polygon class="st6" points="730.8,684.6 730.8,655.8 788.4,655.8 788.4,627 817.2,627 817.2,684.6 "/>
<polygon class="st6" points="1018.8,627 1018.8,598.2 1076.4,598.2 1076.4,569.4 1105.2,569.4 1105.2,627 "/>
<polygon class="st6" points="846,540.6 817.2,540.6 817.2,598.2 788.4,598.2 788.4,627 846,627 "/>
<polygon class="st7" points="817.2,483 846,483 846,425.4 874.8,425.4 874.8,396.6 817.2,396.6 "/>
<polygon class="st7" points="759.6,627 759.6,655.8 702,655.8 702,684.6 673.2,684.6 673.2,627 "/>
<polygon class="st7" points="586.8,22.2 586.8,108.6 615.6,108.6 615.6,51 644.4,51 644.4,22.2 "/>
<polygon class="st7" points="1162.8,166.2 1134,166.2 1134,108.6 1105.2,108.6 1105.2,79.8 1162.8,79.8 "/>
<polygon class="st7" points="1306.8,195 1278,195 1278,137.4 1249.2,137.4 1249.2,108.6 1306.8,108.6 "/>
<polygon class="st8" points="788.4,281.4 817.2,281.4 817.2,223.8 846,223.8 846,195 788.4,195 "/>
<polygon class="st8" points="2170.8,367.8 2199.6,367.8 2199.6,425.4 2228.4,425.4 2228.4,454.2 2170.8,454.2 "/>
<polygon class="st8" points="932.4,569.4 903.6,569.4 903.6,627 874.8,627 874.8,655.8 932.4,655.8 "/>
<polygon class="st9" points="2084.4,483 2084.4,511.8 2026.8,511.8 2026.8,540.6 1998,540.6 1998,483 "/>
<polygon class="st9" points="1479.6,252.6 1450.8,252.6 1450.8,310.2 1422,310.2 1422,339 1479.6,339 "/>
<polygon class="st9" points="1738.8,195 1710,195 1710,252.6 1681.2,252.6 1681.2,281.4 1738.8,281.4 "/>
<polygon class="st9" points="2142,166.2 2113.2,166.2 2113.2,223.8 2084.4,223.8 2084.4,252.6 2142,252.6 "/>
<polygon class="st9" points="1854,367.8 1854,396.6 1796.4,396.6 1796.4,425.4 1767.6,425.4 1767.6,367.8 "/>
<polygon class="st9" points="1508.4,540.6 1508.4,569.4 1450.8,569.4 1450.8,598.2 1422,598.2 1422,540.6 "/>
<polygon class="st10" points="846,540.6 846,511.8 903.6,511.8 903.6,483 932.4,483 932.4,540.6 "/>
<polygon class="st10" points="1335.6,713.4 1306.8,713.4 1306.8,655.8 1278,655.8 1278,627 1335.6,627 "/>
<polygon class="st10" points="702,166.2 673.2,166.2 673.2,108.6 644.4,108.6 644.4,79.8 702,79.8 "/>
<polygon class="st10" points="1422,713.4 1422,742.2 1364.4,742.2 1364.4,771 1450.8,771 1450.8,713.4 "/>
<polygon class="st11" points="874.8,684.6 874.8,713.4 817.2,713.4 817.2,742.2 788.4,742.2 788.4,684.6 "/>
<polygon class="st11" points="1594.8,598.2 1594.8,627 1652.4,627 1652.4,655.8 1681.2,655.8 1681.2,598.2 "/>
<polygon class="st11" points="1796.4,137.4 1767.6,137.4 1767.6,195 1738.8,195 1738.8,223.8 1796.4,223.8 "/>
<polygon class="st11" points="1940.4,310.2 1940.4,281.4 1998,281.4 1998,252.6 2026.8,252.6 2026.8,310.2 "/>
<polygon class="st11" points="2199.6,367.8 2170.8,367.8 2170.8,310.2 2142,310.2 2142,281.4 2199.6,281.4 "/>
<polygon class="st11" points="1998,713.4 1998,684.6 1940.4,684.6 1940.4,655.8 1911.6,655.8 1911.6,713.4 "/>
<polygon class="st11" points="1450.8,713.4 1450.8,742.2 1508.4,742.2 1508.4,771 1537.2,771 1537.2,713.4 "/>
<polygon class="st12" points="730.8,22.2 730.8,108.6 788.4,108.6 788.4,79.8 759.6,79.8 759.6,22.2 "/>
<polygon class="st12" points="788.4,137.4 788.4,166.2 730.8,166.2 730.8,195 702,195 702,137.4 "/>
<polygon class="st12" points="788.4,108.6 788.4,137.4 846,137.4 846,166.2 874.8,166.2 874.8,108.6 "/>
<polygon class="st13" points="1594.8,22.2 1594.8,108.6 1652.4,108.6 1652.4,79.8 1623.6,79.8 1623.6,22.2 "/>
<polygon class="st13" points="702,425.4 730.8,425.4 730.8,483 759.6,483 759.6,511.8 702,511.8 "/>
<polygon class="st13" points="1105.2,22.2 1105.2,51 1162.8,51 1162.8,79.8 1191.6,79.8 1191.6,22.2 "/>
<polygon class="st13" points="1652.4,22.2 1652.4,51 1710,51 1710,79.8 1738.8,79.8 1738.8,22.2 "/>
<polygon class="st13" points="788.4,569.4 788.4,540.6 730.8,540.6 730.8,511.8 702,511.8 702,569.4 "/>
<polygon class="st14" points="846,713.4 846,742.2 903.6,742.2 903.6,771 932.4,771 932.4,713.4 "/>
<polygon class="st14" points="1450.8,195 1422,195 1422,252.6 1393.2,252.6 1393.2,281.4 1450.8,281.4 "/>
<polygon class="st14" points="1623.6,713.4 1594.8,713.4 1594.8,655.8 1566,655.8 1566,627 1623.6,627 "/>
<polygon class="st14" points="1594.8,339 1566,339 1566,396.6 1537.2,396.6 1537.2,425.4 1594.8,425.4 "/>
<polygon class="st14" points="1047.6,425.4 1076.4,425.4 1076.4,367.8 1105.2,367.8 1105.2,339 1047.6,339 "/>
<polygon class="st15" points="1566,339 1594.8,339 1594.8,281.4 1623.6,281.4 1623.6,252.6 1566,252.6 "/>
<polygon class="st15" points="1796.4,684.6 1796.4,713.4 1738.8,713.4 1738.8,742.2 1710,742.2 1710,684.6 "/>
<polygon class="st15" points="1882.8,684.6 1882.8,771 1940.4,771 1940.4,742.2 1911.6,742.2 1911.6,684.6 "/>
<polygon class="st15" points="1018.8,511.8 1047.6,511.8 1047.6,569.4 1076.4,569.4 1076.4,598.2 1018.8,598.2 "/>
<polygon class="st16" points="759.6,425.4 788.4,425.4 788.4,367.8 817.2,367.8 817.2,339 759.6,339 "/>
<polygon class="st16" points="2228.4,22.2 2228.4,51 2170.8,51 2170.8,79.8 2257.2,79.8 2257.2,22.2 "/>
<polygon class="st16" points="932.4,454.2 932.4,425.4 990,425.4 990,396.6 1018.8,396.6 1018.8,454.2 "/>
<polygon class="st16" points="1479.6,684.6 1508.4,684.6 1508.4,627 1537.2,627 1537.2,598.2 1479.6,598.2 "/>
<polygon class="st17" points="1450.8,396.6 1450.8,425.4 1508.4,425.4 1508.4,454.2 1537.2,454.2 1537.2,396.6 "/>
<polygon class="st17" points="2055.6,396.6 2055.6,367.8 1998,367.8 1998,339 1969.2,339 1969.2,396.6 "/>
<polygon class="st17" points="903.6,339 903.6,367.8 846,367.8 846,396.6 817.2,396.6 817.2,339 "/>
<polygon class="st17" points="1134,252.6 1134,281.4 1191.6,281.4 1191.6,310.2 1220.4,310.2 1220.4,252.6 "/>
<polygon class="st17" points="2084.4,51 2055.6,51 2055.6,108.6 2026.8,108.6 2026.8,137.4 2084.4,137.4 "/>
<polygon class="st18" points="990,742.2 990,713.4 1047.6,713.4 1047.6,684.6 1076.4,684.6 1076.4,742.2 "/>
<polygon class="st18" points="1018.8,454.2 1018.8,425.4 1076.4,425.4 1076.4,396.6 1105.2,396.6 1105.2,454.2 "/>
<polygon class="st18" points="1623.6,195 1594.8,195 1594.8,137.4 1566,137.4 1566,108.6 1623.6,108.6 "/>
<polygon class="st18" points="2199.6,483 2199.6,454.2 2142,454.2 2142,425.4 2113.2,425.4 2113.2,483 "/>
<polygon class="st18" points="586.8,166.2 586.8,195 644.4,195 644.4,223.8 673.2,223.8 673.2,166.2 "/>
<polygon class="st19" points="558,454.2 558,483 586.8,483 586.8,540.6 615.6,540.6 615.6,454.2 "/>
<polygon class="st19" points="1278,454.2 1278,483 1220.4,483 1220.4,511.8 1191.6,511.8 1191.6,454.2 "/>
<polygon class="st19" points="1479.6,684.6 1479.6,655.8 1422,655.8 1422,627 1393.2,627 1393.2,684.6 "/>
<polygon class="st19" points="730.8,281.4 759.6,281.4 759.6,223.8 788.4,223.8 788.4,195 730.8,195 "/>
<polygon class="st19" points="1105.2,483 1105.2,454.2 1162.8,454.2 1162.8,425.4 1191.6,425.4 1191.6,483 "/>
<polygon class="st19" points="1249.2,540.6 1249.2,511.8 1306.8,511.8 1306.8,483 1335.6,483 1335.6,540.6 "/>
<polygon class="st20" points="673.2,195 702,195 702,252.6 730.8,252.6 730.8,281.4 673.2,281.4 "/>
<polygon class="st20" points="990,483 990,454.2 932.4,454.2 932.4,425.4 903.6,425.4 903.6,483 "/>
<polygon class="st20" points="1882.8,454.2 1911.6,454.2 1911.6,396.6 1940.4,396.6 1940.4,367.8 1882.8,367.8 "/>
<polygon class="st20" points="1422,483 1393.2,483 1393.2,540.6 1364.4,540.6 1364.4,569.4 1422,569.4 "/>
<polygon class="st20" points="2113.2,483 2084.4,483 2084.4,540.6 2055.6,540.6 2055.6,569.4 2113.2,569.4 "/>
<polygon class="st21" points="1767.6,396.6 1738.8,396.6 1738.8,454.2 1710,454.2 1710,483 1767.6,483 "/>
<polygon class="st21" points="1191.6,22.2 1191.6,79.8 1220.4,79.8 1220.4,51 1278,51 1278,22.2 "/>
<polygon class="st21" points="2084.4,655.8 2113.2,655.8 2113.2,713.4 2142,713.4 2142,742.2 2084.4,742.2 "/>
<polygon class="st21" points="1854,627 1854,598.2 1911.6,598.2 1911.6,569.4 1940.4,569.4 1940.4,627 "/>
<polygon class="st22" points="2199.6,339 2199.6,396.6 2286,396.6 2286,367.8 2228.4,367.8 2228.4,339 "/>
<polygon class="st22" points="702,367.8 702,339 644.4,339 644.4,310.2 615.6,310.2 615.6,367.8 "/>
<polygon class="st22" points="2257.2,598.2 2257.2,627 2199.6,627 2199.6,655.8 2170.8,655.8 2170.8,598.2 "/>
<polygon class="st22" points="1191.6,166.2 1191.6,195 1249.2,195 1249.2,223.8 1278,223.8 1278,166.2 "/>
<polygon class="st22" points="874.8,684.6 874.8,655.8 932.4,655.8 932.4,627 961.2,627 961.2,684.6 "/>
<polygon class="st22" points="615.6,22.2 615.6,79.8 702,79.8 702,51 644.4,51 644.4,22.2 "/>
<polygon class="st23" points="1537.2,137.4 1537.2,166.2 1479.6,166.2 1479.6,195 1450.8,195 1450.8,137.4 "/>
<polygon class="st23" points="1220.4,252.6 1249.2,252.6 1249.2,310.2 1278,310.2 1278,339 1220.4,339 "/>
<polygon class="st24" points="1422,425.4 1393.2,425.4 1393.2,367.8 1364.4,367.8 1364.4,339 1422,339 "/>
<polygon class="st24" points="615.6,511.8 615.6,540.6 558,540.6 558,569.4 644.4,569.4 644.4,511.8 "/>
<polygon class="st24" points="1882.8,627 1882.8,655.8 1940.4,655.8 1940.4,684.6 1969.2,684.6 1969.2,627 "/>
<polygon class="st24" points="2257.2,252.6 2228.4,252.6 2228.4,310.2 2199.6,310.2 2199.6,339 2257.2,339 "/>
<polygon class="st24" points="2228.4,742.2 2199.6,742.2 2199.6,684.6 2170.8,684.6 2170.8,655.8 2228.4,655.8 "/>
<polygon class="st25" points="1882.8,540.6 1882.8,569.4 1825.2,569.4 1825.2,598.2 1796.4,598.2 1796.4,540.6 "/>
<polygon class="st25" points="1191.6,540.6 1191.6,569.4 1249.2,569.4 1249.2,598.2 1278,598.2 1278,540.6 "/>
<polygon class="st25" points="1335.6,339 1306.8,339 1306.8,396.6 1278,396.6 1278,425.4 1335.6,425.4 "/>
<polygon class="st25" points="846,79.8 846,108.6 788.4,108.6 788.4,137.4 759.6,137.4 759.6,79.8 "/>
<polygon class="st26" points="730.8,540.6 730.8,511.8 788.4,511.8 788.4,483 817.2,483 817.2,540.6 "/>
<polygon class="st26" points="1882.8,22.2 1882.8,51 1825.2,51 1825.2,79.8 1911.6,79.8 1911.6,22.2 "/>
<polygon class="st27" points="1018.8,540.6 990,540.6 990,598.2 961.2,598.2 961.2,627 1018.8,627 "/>
<polygon class="st27" points="1364.4,166.2 1393.2,166.2 1393.2,108.6 1422,108.6 1422,79.8 1364.4,79.8 "/>
<polygon class="st27" points="2084.4,425.4 2113.2,425.4 2113.2,367.8 2142,367.8 2142,339 2084.4,339 "/>
<polygon class="st27" points="1738.8,684.6 1738.8,655.8 1796.4,655.8 1796.4,627 1825.2,627 1825.2,684.6 "/>
<polygon class="st27" points="2199.6,511.8 2170.8,511.8 2170.8,569.4 2142,569.4 2142,598.2 2199.6,598.2 "/>
<polygon class="st28" points="1652.4,223.8 1652.4,195 1594.8,195 1594.8,166.2 1566,166.2 1566,223.8 "/>
<polygon class="st28" points="759.6,367.8 759.6,396.6 702,396.6 702,425.4 673.2,425.4 673.2,367.8 "/>
<polygon class="st29" points="644.4,511.8 673.2,511.8 673.2,454.2 702,454.2 702,425.4 644.4,425.4 "/>
<polygon class="st29" points="903.6,396.6 932.4,396.6 932.4,339 961.2,339 961.2,310.2 903.6,310.2 "/>
<polygon class="st30" points="1882.8,367.8 1882.8,339 1825.2,339 1825.2,310.2 1796.4,310.2 1796.4,367.8 "/>
<polygon class="st30" points="644.4,627 615.6,627 615.6,684.6 586.8,684.6 586.8,713.4 644.4,713.4 "/>
<polygon class="st30" points="2228.4,223.8 2228.4,252.6 2170.8,252.6 2170.8,281.4 2142,281.4 2142,223.8 "/>
<polygon class="st30" points="1882.8,223.8 1882.8,195 1940.4,195 1940.4,166.2 1969.2,166.2 1969.2,223.8 "/>
<polygon class="st30" points="1508.4,684.6 1508.4,713.4 1566,713.4 1566,742.2 1594.8,742.2 1594.8,684.6 "/>
<polygon class="st30" points="1738.8,166.2 1738.8,137.4 1681.2,137.4 1681.2,108.6 1652.4,108.6 1652.4,166.2 "/>
<polygon class="st30" points="1450.8,540.6 1450.8,511.8 1508.4,511.8 1508.4,483 1537.2,483 1537.2,540.6 "/>
<polygon class="st30" points="1825.2,396.6 1796.4,396.6 1796.4,454.2 1767.6,454.2 1767.6,483 1825.2,483 "/>
<polygon class="st30" points="1162.8,713.4 1162.8,684.6 1105.2,684.6 1105.2,655.8 1076.4,655.8 1076.4,713.4 "/>
<polygon class="st30" points="1681.2,684.6 1681.2,771 1738.8,771 1738.8,742.2 1710,742.2 1710,684.6 "/>
<polygon class="st30" points="1076.4,79.8 1076.4,108.6 1018.8,108.6 1018.8,137.4 990,137.4 990,79.8 "/>
<polygon class="st29" points="2228.4,223.8 2228.4,252.6 2257.2,252.6 2257.2,310.2 2286,310.2 2286,223.8 "/>
<polygon class="st29" points="644.4,195 615.6,195 615.6,252.6 586.8,252.6 586.8,281.4 644.4,281.4 "/>
<polygon class="st29" points="1105.2,627 1105.2,598.2 1162.8,598.2 1162.8,569.4 1191.6,569.4 1191.6,627 "/>
<polygon class="st29" points="1278,655.8 1306.8,655.8 1306.8,713.4 1335.6,713.4 1335.6,742.2 1278,742.2 "/>
<polygon class="st29" points="1191.6,108.6 1162.8,108.6 1162.8,166.2 1134,166.2 1134,195 1191.6,195 "/>
<polygon class="st29" points="1047.6,137.4 1047.6,166.2 1105.2,166.2 1105.2,195 1134,195 1134,137.4 "/>
<polygon class="st28" points="788.4,223.8 759.6,223.8 759.6,281.4 730.8,281.4 730.8,310.2 788.4,310.2 "/>
<polygon class="st28" points="1969.2,195 1998,195 1998,137.4 2026.8,137.4 2026.8,108.6 1969.2,108.6 "/>
<polygon class="st28" points="2170.8,684.6 2170.8,771 2228.4,771 2228.4,742.2 2199.6,742.2 2199.6,684.6 "/>
<polygon class="st28" points="586.8,166.2 586.8,137.4 644.4,137.4 644.4,108.6 673.2,108.6 673.2,166.2 "/>
<polygon class="st28" points="1191.6,310.2 1191.6,281.4 1134,281.4 1134,252.6 1105.2,252.6 1105.2,310.2 "/>
<polygon class="st27" points="2142,281.4 2142,252.6 2084.4,252.6 2084.4,223.8 2055.6,223.8 2055.6,281.4 "/>
<polygon class="st27" points="1306.8,483 1306.8,511.8 1249.2,511.8 1249.2,540.6 1220.4,540.6 1220.4,483 "/>
<polygon class="st27" points="1450.8,195 1450.8,223.8 1508.4,223.8 1508.4,252.6 1537.2,252.6 1537.2,195 "/>
<polygon class="st26" points="903.6,310.2 903.6,281.4 846,281.4 846,252.6 817.2,252.6 817.2,310.2 "/>
<polygon class="st26" points="1767.6,108.6 1738.8,108.6 1738.8,166.2 1710,166.2 1710,195 1767.6,195 "/>
<polygon class="st25" points="1969.2,396.6 1940.4,396.6 1940.4,339 1911.6,339 1911.6,310.2 1969.2,310.2 "/>
<polygon class="st25" points="1479.6,367.8 1479.6,339 1537.2,339 1537.2,310.2 1566,310.2 1566,367.8 "/>
<polygon class="st25" points="1969.2,22.2 1969.2,51 1998,51 1998,108.6 2026.8,108.6 2026.8,22.2 "/>
<polygon class="st25" points="1882.8,252.6 1854,252.6 1854,195 1825.2,195 1825.2,166.2 1882.8,166.2 "/>
<polygon class="st25" points="586.8,598.2 586.8,655.8 558,655.8 558,684.6 615.6,684.6 615.6,598.2 "/>
<polygon class="st25" points="1306.8,195 1306.8,223.8 1364.4,223.8 1364.4,252.6 1393.2,252.6 1393.2,195 "/>
<polygon class="st24" points="2055.6,252.6 2055.6,223.8 1998,223.8 1998,195 1969.2,195 1969.2,252.6 "/>
<polygon class="st24" points="1422,339 1422,310.2 1364.4,310.2 1364.4,281.4 1335.6,281.4 1335.6,339 "/>
<polygon class="st24" points="558,79.8 558,166.2 586.8,166.2 586.8,108.6 615.6,108.6 615.6,79.8 "/>
<polygon class="st24" points="1018.8,310.2 1047.6,310.2 1047.6,252.6 1076.4,252.6 1076.4,223.8 1018.8,223.8 "/>
<polygon class="st23" points="1623.6,22.2 1623.6,108.6 1681.2,108.6 1681.2,79.8 1652.4,79.8 1652.4,22.2 "/>
<polygon class="st23" points="1854,281.4 1825.2,281.4 1825.2,223.8 1796.4,223.8 1796.4,195 1854,195 "/>
<polygon class="st23" points="702,454.2 673.2,454.2 673.2,511.8 644.4,511.8 644.4,540.6 702,540.6 "/>
<polygon class="st22" points="1594.8,540.6 1594.8,569.4 1652.4,569.4 1652.4,598.2 1681.2,598.2 1681.2,540.6 "/>
<polygon class="st22" points="903.6,281.4 903.6,310.2 961.2,310.2 961.2,339 990,339 990,281.4 "/>
<polygon class="st22" points="1594.8,483 1623.6,483 1623.6,425.4 1652.4,425.4 1652.4,396.6 1594.8,396.6 "/>
<polygon class="st22" points="1306.8,627 1306.8,598.2 1249.2,598.2 1249.2,569.4 1220.4,569.4 1220.4,627 "/>
<polygon class="st21" points="644.4,22.2 644.4,51 702,51 702,79.8 730.8,79.8 730.8,22.2 "/>
<polygon class="st21" points="2084.4,742.2 2084.4,713.4 2026.8,713.4 2026.8,684.6 1998,684.6 1998,742.2 "/>
<polygon class="st21" points="730.8,195 730.8,166.2 788.4,166.2 788.4,137.4 817.2,137.4 817.2,195 "/>
<polygon class="st21" points="1422,454.2 1450.8,454.2 1450.8,396.6 1479.6,396.6 1479.6,367.8 1422,367.8 "/>
<polygon class="st21" points="1767.6,483 1767.6,511.8 1710,511.8 1710,540.6 1681.2,540.6 1681.2,483 "/>
<polygon class="st21" points="2170.8,396.6 2142,396.6 2142,339 2113.2,339 2113.2,310.2 2170.8,310.2 "/>
<polygon class="st20" points="1306.8,166.2 1335.6,166.2 1335.6,108.6 1364.4,108.6 1364.4,79.8 1306.8,79.8 "/>
<polygon class="st20" points="1767.6,339 1796.4,339 1796.4,281.4 1825.2,281.4 1825.2,252.6 1767.6,252.6 "/>
<polygon class="st20" points="1854,742.2 1882.8,742.2 1882.8,684.6 1911.6,684.6 1911.6,655.8 1854,655.8 "/>
<polygon class="st20" points="730.8,598.2 730.8,627 673.2,627 673.2,655.8 644.4,655.8 644.4,598.2 "/>
<polygon class="st19" points="2199.6,454.2 2199.6,511.8 2286,511.8 2286,483 2228.4,483 2228.4,454.2 "/>
<polygon class="st19" points="903.6,627 874.8,627 874.8,569.4 846,569.4 846,540.6 903.6,540.6 "/>
<polygon class="st19" points="1220.4,339 1220.4,367.8 1278,367.8 1278,396.6 1306.8,396.6 1306.8,339 "/>
<polygon class="st19" points="874.8,79.8 903.6,79.8 903.6,137.4 932.4,137.4 932.4,166.2 874.8,166.2 "/>
<polygon class="st19" points="1335.6,454.2 1364.4,454.2 1364.4,396.6 1393.2,396.6 1393.2,367.8 1335.6,367.8 "/>
<polygon class="st19" points="2199.6,367.8 2199.6,425.4 2286,425.4 2286,396.6 2228.4,396.6 2228.4,367.8 "/>
<polygon class="st18" points="1076.4,713.4 1076.4,771 1162.8,771 1162.8,742.2 1105.2,742.2 1105.2,713.4 "/>
<polygon class="st18" points="1854,79.8 1854,108.6 1796.4,108.6 1796.4,137.4 1767.6,137.4 1767.6,79.8 "/>
<polygon class="st18" points="759.6,22.2 759.6,51 788.4,51 788.4,108.6 817.2,108.6 817.2,22.2 "/>
<polygon class="st18" points="1710,540.6 1710,569.4 1767.6,569.4 1767.6,598.2 1796.4,598.2 1796.4,540.6 "/>
<polygon class="st17" points="1594.8,713.4 1594.8,742.2 1537.2,742.2 1537.2,771 1623.6,771 1623.6,713.4 "/>
<polygon class="st17" points="903.6,684.6 903.6,713.4 932.4,713.4 932.4,771 961.2,771 961.2,684.6 "/>
<polygon class="st17" points="730.8,339 730.8,310.2 788.4,310.2 788.4,281.4 817.2,281.4 817.2,339 "/>
<polygon class="st17" points="1364.4,483 1335.6,483 1335.6,540.6 1306.8,540.6 1306.8,569.4 1364.4,569.4 "/>
<polygon class="st17" points="1508.4,51 1479.6,51 1479.6,108.6 1450.8,108.6 1450.8,137.4 1508.4,137.4 "/>
<polygon class="st16" points="1479.6,195 1479.6,166.2 1537.2,166.2 1537.2,137.4 1566,137.4 1566,195 "/>
<polygon class="st16" points="759.6,713.4 759.6,771 846,771 846,742.2 788.4,742.2 788.4,713.4 "/>
<polygon class="st16" points="932.4,425.4 961.2,425.4 961.2,367.8 990,367.8 990,339 932.4,339 "/>
<polygon class="st16" points="1479.6,627 1479.6,598.2 1422,598.2 1422,569.4 1393.2,569.4 1393.2,627 "/>
<polygon class="st16" points="1882.8,281.4 1911.6,281.4 1911.6,339 1940.4,339 1940.4,367.8 1882.8,367.8 "/>
<polygon class="st16" points="2199.6,108.6 2170.8,108.6 2170.8,166.2 2142,166.2 2142,195 2199.6,195 "/>
<polygon class="st15" points="1191.6,396.6 1191.6,425.4 1134,425.4 1134,454.2 1105.2,454.2 1105.2,396.6 "/>
<polygon class="st15" points="2026.8,454.2 2026.8,483 1969.2,483 1969.2,511.8 1940.4,511.8 1940.4,454.2 "/>
<polygon class="st15" points="1191.6,195 1191.6,223.8 1134,223.8 1134,252.6 1105.2,252.6 1105.2,195 "/>
<g>
	<polygon class="st15" points="644.4,828.6 644.4,857.4 702,857.4 702,886.2 730.8,886.2 730.8,828.6 	"/>
	<polygon class="st31" points="1105.2,915 1134,915 1134,857.4 1162.8,857.4 1162.8,828.6 1105.2,828.6 	"/>
	<polygon class="st22" points="558,828.6 558,886.2 586.8,886.2 586.8,857.4 644.4,857.4 644.4,828.6 	"/>
	<polygon class="st8" points="2084.4,915 2055.6,915 2055.6,857.4 2026.8,857.4 2026.8,828.6 2084.4,828.6 	"/>
	<polygon class="st15" points="644.4,886.2 644.4,915 702,915 702,943.8 730.8,943.8 730.8,886.2 	"/>
	<polygon class="st22" points="558,886.2 558,943.8 586.8,943.8 586.8,915 644.4,915 644.4,886.2 	"/>
	<polygon class="st18" points="615.6,943.8 615.6,1001.4 702,1001.4 702,972.6 644.4,972.6 644.4,943.8 	"/>
	<polygon class="st26" points="759.6,943.8 759.6,972.6 702,972.6 702,1001.4 788.4,1001.4 788.4,943.8 	"/>
	<polygon class="st31" points="846,828.6 817.2,828.6 817.2,886.2 788.4,886.2 788.4,915 846,915 	"/>
	<polygon class="st11" points="817.2,915 817.2,1001.4 874.8,1001.4 874.8,972.6 846,972.6 846,915 	"/>
	<polygon class="st31" points="1191.6,828.6 1162.8,828.6 1162.8,886.2 1134,886.2 1134,915 1191.6,915 	"/>
	<polygon class="st15" points="903.6,915 903.6,943.8 961.2,943.8 961.2,972.6 990,972.6 990,915 	"/>
	<polygon class="st18" points="903.6,943.8 903.6,1001.4 990,1001.4 990,972.6 932.4,972.6 932.4,943.8 	"/>
	<polygon class="st15" points="1105.2,943.8 1105.2,972.6 1162.8,972.6 1162.8,1001.4 1191.6,1001.4 1191.6,943.8 	"/>
	<polygon class="st22" points="1018.8,943.8 1018.8,1001.4 1047.6,1001.4 1047.6,972.6 1105.2,972.6 1105.2,943.8 	"/>
	<polygon class="st22" points="1306.8,828.6 1306.8,857.4 1249.2,857.4 1249.2,886.2 1220.4,886.2 1220.4,828.6 	"/>
	<polygon class="st22" points="1306.8,886.2 1306.8,915 1249.2,915 1249.2,943.8 1220.4,943.8 1220.4,886.2 	"/>
	<polygon class="st18" points="1220.4,943.8 1220.4,1001.4 1306.8,1001.4 1306.8,972.6 1249.2,972.6 1249.2,943.8 	"/>
	<polygon class="st11" points="1335.6,915 1335.6,1001.4 1393.2,1001.4 1393.2,972.6 1364.4,972.6 1364.4,915 	"/>
	<polygon class="st11" points="1335.6,828.6 1364.4,828.6 1364.4,886.2 1393.2,886.2 1393.2,915 1335.6,915 	"/>
	<polygon class="st31" points="1422,915 1422,1001.4 1450.8,1001.4 1450.8,943.8 1479.6,943.8 1479.6,915 	"/>
	<rect x="1422" y="857.4" class="st31" width="28.8" height="28.8"/>
	<polygon class="st22" points="1594.8,886.2 1594.8,915 1537.2,915 1537.2,943.8 1508.4,943.8 1508.4,886.2 	"/>
	<polygon class="st18" points="1508.4,943.8 1508.4,1001.4 1594.8,1001.4 1594.8,972.6 1537.2,972.6 1537.2,943.8 	"/>
	<polygon class="st31" points="1854,828.6 1825.2,828.6 1825.2,886.2 1796.4,886.2 1796.4,915 1854,915 	"/>
	<polygon class="st11" points="1825.2,915 1825.2,1001.4 1882.8,1001.4 1882.8,972.6 1854,972.6 1854,915 	"/>
	<polygon class="st11" points="1882.8,828.6 1911.6,828.6 1911.6,886.2 1940.4,886.2 1940.4,915 1882.8,915 	"/>
	<polygon class="st31" points="1998,828.6 1969.2,828.6 1969.2,886.2 1940.4,886.2 1940.4,915 1998,915 	"/>
	<polygon class="st31" points="1969.2,915 1969.2,972.6 1940.4,972.6 1940.4,1001.4 1998,1001.4 1998,915 	"/>
	<polygon class="st31" points="2055.6,915 2055.6,972.6 2026.8,972.6 2026.8,1001.4 2084.4,1001.4 2084.4,915 	"/>
	<polygon class="st15" points="2084.4,828.6 2084.4,857.4 2142,857.4 2142,886.2 2170.8,886.2 2170.8,828.6 	"/>
	<polygon class="st26" points="2084.4,943.8 2084.4,915 2142,915 2142,886.2 2170.8,886.2 2170.8,943.8 	"/>
	<polygon class="st22" points="2199.6,828.6 2199.6,886.2 2228.4,886.2 2228.4,857.4 2286,857.4 2286,828.6 	"/>
	<polygon class="st18" points="2199.6,886.2 2199.6,943.8 2286,943.8 2286,915 2228.4,915 2228.4,886.2 	"/>
	<polygon class="st18" points="2199.6,943.8 2199.6,1001.4 2286,1001.4 2286,972.6 2228.4,972.6 2228.4,943.8 	"/>
</g>
</svg>
