<?xml version="1.0" encoding="utf-8"?>
<!-- Generator: Adobe Illustrator 19.1.0, SVG Export Plug-In . SVG Version: 6.00 Build 0)  -->
<svg version="1.1" id="Layer_1" xmlns="http://www.w3.org/2000/svg" xmlns:xlink="http://www.w3.org/1999/xlink" x="0px" y="0px"
	 viewBox="848 -358.8 1728 172.8" style="enable-background:new 848 -358.8 1728 172.8;" xml:space="preserve">
<style type="text/css">
	.st0{fill:#0000FF;}
	.st1{fill:#231F20;}
	.st2{fill:#7171FF;}
	.st3{fill:#454545;}
	.st4{fill:#2C2CFF;}
	.st5{fill:#B0B1FF;}
	.st6{fill:#616161;}
</style>
<g>
	<polygon class="st0" points="992,-358.8 992,-330 1049.6,-330 1049.6,-301.2 1078.4,-301.2 1078.4,-358.8 	"/>
	<polygon class="st1" points="1452.8,-272.4 1481.6,-272.4 1481.6,-330 1510.4,-330 1510.4,-358.8 1452.8,-358.8 	"/>
	<polygon class="st2" points="905.6,-358.8 905.6,-301.2 934.4,-301.2 934.4,-330 992,-330 992,-358.8 	"/>
	<polygon class="st3" points="2316.8,-272.4 2288,-272.4 2288,-330 2259.2,-330 2259.2,-358.8 2316.8,-358.8 	"/>
	<polygon class="st0" points="992,-301.2 992,-272.4 1049.6,-272.4 1049.6,-243.6 1078.4,-243.6 1078.4,-301.2 	"/>
	<polygon class="st2" points="905.6,-301.2 905.6,-243.6 934.4,-243.6 934.4,-272.4 992,-272.4 992,-301.2 	"/>
	<polygon class="st4" points="963.2,-243.6 963.2,-186 1049.6,-186 1049.6,-214.8 992,-214.8 992,-243.6 	"/>
	<polygon class="st5" points="1107.2,-243.6 1107.2,-214.8 1049.6,-214.8 1049.6,-186 1136,-186 1136,-243.6 	"/>
	<polygon class="st1" points="1193.6,-358.8 1164.8,-358.8 1164.8,-301.2 1136,-301.2 1136,-272.4 1193.6,-272.4 	"/>
	<polygon class="st6" points="1164.8,-272.4 1164.8,-186 1222.4,-186 1222.4,-214.8 1193.6,-214.8 1193.6,-272.4 	"/>
	<polygon class="st1" points="1539.2,-358.8 1510.4,-358.8 1510.4,-301.2 1481.6,-301.2 1481.6,-272.4 1539.2,-272.4 	"/>
	<polygon class="st0" points="1251.2,-272.4 1251.2,-243.6 1308.8,-243.6 1308.8,-214.8 1337.6,-214.8 1337.6,-272.4 	"/>
	<polygon class="st4" points="1251.2,-243.6 1251.2,-186 1337.6,-186 1337.6,-214.8 1280,-214.8 1280,-243.6 	"/>
	<polygon class="st0" points="1452.8,-243.6 1452.8,-214.8 1510.4,-214.8 1510.4,-186 1539.2,-186 1539.2,-243.6 	"/>
	<polygon class="st2" points="1366.4,-243.6 1366.4,-186 1395.2,-186 1395.2,-214.8 1452.8,-214.8 1452.8,-243.6 	"/>
	<polygon class="st2" points="1654.4,-358.8 1654.4,-330 1596.8,-330 1596.8,-301.2 1568,-301.2 1568,-358.8 	"/>
	<polygon class="st2" points="1654.4,-301.2 1654.4,-272.4 1596.8,-272.4 1596.8,-243.6 1568,-243.6 1568,-301.2 	"/>
	<polygon class="st4" points="1568,-243.6 1568,-186 1654.4,-186 1654.4,-214.8 1596.8,-214.8 1596.8,-243.6 	"/>
	<polygon class="st6" points="1683.2,-272.4 1683.2,-186 1740.8,-186 1740.8,-214.8 1712,-214.8 1712,-272.4 	"/>
	<polygon class="st6" points="1683.2,-358.8 1712,-358.8 1712,-301.2 1740.8,-301.2 1740.8,-272.4 1683.2,-272.4 	"/>
	<polygon class="st1" points="1769.6,-272.4 1769.6,-186 1798.4,-186 1798.4,-243.6 1827.2,-243.6 1827.2,-272.4 	"/>
	<rect x="1769.6" y="-330" class="st1" width="28.8" height="28.8"/>
	<polygon class="st2" points="1942.4,-301.2 1942.4,-272.4 1884.8,-272.4 1884.8,-243.6 1856,-243.6 1856,-301.2 	"/>
	<polygon class="st4" points="1856,-243.6 1856,-186 1942.4,-186 1942.4,-214.8 1884.8,-214.8 1884.8,-243.6 	"/>
	<polygon class="st1" points="2086.4,-358.8 2057.6,-358.8 2057.6,-301.2 2028.8,-301.2 2028.8,-272.4 2086.4,-272.4 	"/>
	<polygon class="st6" points="2057.6,-272.4 2057.6,-186 2115.2,-186 2115.2,-214.8 2086.4,-214.8 2086.4,-272.4 	"/>
	<polygon class="st6" points="2115.2,-358.8 2144,-358.8 2144,-301.2 2172.8,-301.2 2172.8,-272.4 2115.2,-272.4 	"/>
	<polygon class="st1" points="2230.4,-358.8 2201.6,-358.8 2201.6,-301.2 2172.8,-301.2 2172.8,-272.4 2230.4,-272.4 	"/>
	<polygon class="st1" points="2201.6,-272.4 2201.6,-214.8 2172.8,-214.8 2172.8,-186 2230.4,-186 2230.4,-272.4 	"/>
	<polygon class="st1" points="2288,-272.4 2288,-214.8 2259.2,-214.8 2259.2,-186 2316.8,-186 2316.8,-272.4 	"/>
	<polygon class="st0" points="2316.8,-358.8 2316.8,-330 2374.4,-330 2374.4,-301.2 2403.2,-301.2 2403.2,-358.8 	"/>
	<polygon class="st5" points="2316.8,-243.6 2316.8,-272.4 2374.4,-272.4 2374.4,-301.2 2403.2,-301.2 2403.2,-243.6 	"/>
	<polygon class="st2" points="2432,-358.8 2432,-301.2 2460.8,-301.2 2460.8,-330 2518.4,-330 2518.4,-358.8 	"/>
	<polygon class="st4" points="2432,-301.2 2432,-243.6 2518.4,-243.6 2518.4,-272.4 2460.8,-272.4 2460.8,-301.2 	"/>
	<polygon class="st4" points="2432,-243.6 2432,-186 2518.4,-186 2518.4,-214.8 2460.8,-214.8 2460.8,-243.6 	"/>
</g>
</svg>
