<?xml version="1.0" encoding="utf-8"?>
<!-- Generator: Adobe Illustrator 19.1.0, SVG Export Plug-In . SVG Version: 6.00 Build 0)  -->
<svg version="1.1" id="Layer_1" xmlns="http://www.w3.org/2000/svg" xmlns:xlink="http://www.w3.org/1999/xlink" x="0px" y="0px"
	 viewBox="0 0 1728 748.8" style="enable-background:new 0 0 1728 748.8;" xml:space="preserve">
<style type="text/css">
	.st0{fill:#030303;}
	.st1{fill:#060606;}
	.st2{fill:#101010;}
	.st3{fill:#1B1B1B;}
	.st4{fill:#242424;}
	.st5{fill:#2C2C2C;}
	.st6{fill:#353535;}
	.st7{fill:#3E3E3E;}
	.st8{fill:#454545;}
	.st9{fill:#4E4E4E;}
	.st10{fill:#595959;}
	.st11{fill:#616161;}
	.st12{fill:#696969;}
	.st13{fill:#717171;}
	.st14{fill:#797979;}
	.st15{fill:#0000FF;}
	.st16{fill:#0607FF;}
	.st17{fill:#1B1BFF;}
	.st18{fill:#2C2CFF;}
	.st19{fill:#3E3EFF;}
	.st20{fill:#4E4EFF;}
	.st21{fill:#6161FF;}
	.st22{fill:#7171FF;}
	.st23{fill:#8080FF;}
	.st24{fill:#9191FF;}
	.st25{fill:#A1A1FF;}
	.st26{fill:#B0B1FF;}
	.st27{fill:#C2C2FF;}
	.st28{fill:#D1D1FF;}
	.st29{fill:#E0E0FF;}
	.st30{fill:#EFEFEF;}
</style>
<polygon points="172.8,259.2 172.8,288 115.2,288 115.2,316.8 86.4,316.8 86.4,259.2 "/>
<polygon points="835.2,547.2 835.2,518.4 892.8,518.4 892.8,489.6 921.6,489.6 921.6,547.2 "/>
<polygon points="1324.8,288 1324.8,259.2 1382.4,259.2 1382.4,230.4 1411.2,230.4 1411.2,288 "/>
<polygon class="st0" points="1209.6,547.2 1180.8,547.2 1180.8,604.8 1152,604.8 1152,633.6 1209.6,633.6 "/>
<polygon class="st0" points="662.4,0 662.4,86.4 691.2,86.4 691.2,28.8 720,28.8 720,0 "/>
<polygon class="st0" points="748.8,518.4 777.6,518.4 777.6,576 806.4,576 806.4,604.8 748.8,604.8 "/>
<polygon class="st0" points="748.8,374.4 720,374.4 720,432 691.2,432 691.2,460.8 748.8,460.8 "/>
<polygon class="st1" points="921.6,604.8 921.6,576 864,576 864,547.2 835.2,547.2 835.2,604.8 "/>
<polygon class="st1" points="28.8,547.2 28.8,604.8 0,604.8 0,633.6 57.6,633.6 57.6,547.2 "/>
<polygon class="st1" points="576,115.2 604.8,115.2 604.8,172.8 633.6,172.8 633.6,201.6 576,201.6 "/>
<polygon class="st1" points="1094.4,316.8 1094.4,345.6 1036.8,345.6 1036.8,374.4 1008,374.4 1008,316.8 "/>
<polygon class="st2" points="1238.4,547.2 1267.2,547.2 1267.2,489.6 1296,489.6 1296,460.8 1238.4,460.8 "/>
<polygon class="st2" points="1267.2,144 1296,144 1296,86.4 1324.8,86.4 1324.8,57.6 1267.2,57.6 "/>
<polygon class="st2" points="921.6,633.6 921.6,604.8 979.2,604.8 979.2,576 1008,576 1008,633.6 "/>
<polygon class="st2" points="950.4,0 950.4,28.8 979.2,28.8 979.2,86.4 1008,86.4 1008,0 "/>
<polygon class="st2" points="633.6,28.8 633.6,57.6 576,57.6 576,86.4 547.2,86.4 547.2,28.8 "/>
<polygon class="st2" points="1036.8,374.4 1065.6,374.4 1065.6,432 1094.4,432 1094.4,460.8 1036.8,460.8 "/>
<polygon class="st2" points="1526.4,115.2 1526.4,86.4 1584,86.4 1584,57.6 1612.8,57.6 1612.8,115.2 "/>
<polygon class="st3" points="748.8,432 777.6,432 777.6,489.6 806.4,489.6 806.4,518.4 748.8,518.4 "/>
<polygon class="st3" points="662.4,691.2 633.6,691.2 633.6,633.6 604.8,633.6 604.8,604.8 662.4,604.8 "/>
<polygon class="st3" points="576,230.4 576,259.2 518.4,259.2 518.4,288 489.6,288 489.6,230.4 "/>
<polygon class="st3" points="489.6,489.6 518.4,489.6 518.4,432 547.2,432 547.2,403.2 489.6,403.2 "/>
<polygon class="st3" points="432,720 432,691.2 374.4,691.2 374.4,662.4 345.6,662.4 345.6,720 "/>
<polygon class="st4" points="576,547.2 547.2,547.2 547.2,604.8 518.4,604.8 518.4,633.6 576,633.6 "/>
<polygon class="st4" points="230.4,662.4 230.4,633.6 288,633.6 288,604.8 316.8,604.8 316.8,662.4 "/>
<polygon class="st4" points="1612.8,518.4 1641.6,518.4 1641.6,576 1670.4,576 1670.4,604.8 1612.8,604.8 "/>
<polygon class="st4" points="1468.8,259.2 1468.8,288 1526.4,288 1526.4,316.8 1555.2,316.8 1555.2,259.2 "/>
<polygon class="st5" points="1123.2,201.6 1123.2,172.8 1180.8,172.8 1180.8,144 1209.6,144 1209.6,201.6 "/>
<polygon class="st5" points="720,0 720,57.6 691.2,57.6 691.2,86.4 748.8,86.4 748.8,0 "/>
<polygon class="st5" points="1584,230.4 1584,201.6 1641.6,201.6 1641.6,172.8 1670.4,172.8 1670.4,230.4 "/>
<polygon class="st6" points="777.6,259.2 777.6,288 720,288 720,316.8 691.2,316.8 691.2,259.2 "/>
<polygon class="st6" points="172.8,518.4 172.8,489.6 115.2,489.6 115.2,460.8 86.4,460.8 86.4,518.4 "/>
<polygon class="st6" points="144,316.8 144,345.6 86.4,345.6 86.4,374.4 57.6,374.4 57.6,316.8 "/>
<polygon class="st6" points="1584,316.8 1612.8,316.8 1612.8,374.4 1641.6,374.4 1641.6,403.2 1584,403.2 "/>
<polygon class="st6" points="201.6,662.4 201.6,720 172.8,720 172.8,748.8 230.4,748.8 230.4,662.4 "/>
<polygon class="st6" points="1612.8,144 1641.6,144 1641.6,86.4 1670.4,86.4 1670.4,57.6 1612.8,57.6 "/>
<polygon class="st7" points="921.6,288 921.6,316.8 979.2,316.8 979.2,345.6 1008,345.6 1008,288 "/>
<polygon class="st7" points="1180.8,374.4 1209.6,374.4 1209.6,432 1238.4,432 1238.4,460.8 1180.8,460.8 "/>
<polygon class="st7" points="892.8,172.8 864,172.8 864,115.2 835.2,115.2 835.2,86.4 892.8,86.4 "/>
<polygon class="st7" points="950.4,259.2 950.4,230.4 892.8,230.4 892.8,201.6 864,201.6 864,259.2 "/>
<polygon class="st7" points="864,662.4 864,720 835.2,720 835.2,748.8 892.8,748.8 892.8,662.4 "/>
<polygon class="st8" points="1440,172.8 1468.8,172.8 1468.8,230.4 1497.6,230.4 1497.6,259.2 1440,259.2 "/>
<polygon class="st8" points="604.8,720 576,720 576,662.4 547.2,662.4 547.2,633.6 604.8,633.6 "/>
<polygon class="st8" points="1353.6,518.4 1382.4,518.4 1382.4,576 1411.2,576 1411.2,604.8 1353.6,604.8 "/>
<polygon class="st8" points="57.6,604.8 57.6,633.6 0,633.6 0,662.4 86.4,662.4 86.4,604.8 "/>
<polygon class="st8" points="460.8,230.4 489.6,230.4 489.6,288 518.4,288 518.4,316.8 460.8,316.8 "/>
<polygon class="st8" points="316.8,86.4 316.8,115.2 259.2,115.2 259.2,144 230.4,144 230.4,86.4 "/>
<polygon class="st9" points="28.8,662.4 28.8,691.2 86.4,691.2 86.4,720 115.2,720 115.2,662.4 "/>
<polygon class="st9" points="518.4,115.2 518.4,144 460.8,144 460.8,172.8 432,172.8 432,115.2 "/>
<polygon class="st9" points="489.6,230.4 518.4,230.4 518.4,172.8 547.2,172.8 547.2,144 489.6,144 "/>
<polygon class="st9" points="979.2,547.2 979.2,518.4 1036.8,518.4 1036.8,489.6 1065.6,489.6 1065.6,547.2 "/>
<polygon class="st10" points="979.2,691.2 979.2,748.8 1065.6,748.8 1065.6,720 1008,720 1008,691.2 "/>
<polygon class="st10" points="1555.2,633.6 1555.2,662.4 1612.8,662.4 1612.8,691.2 1641.6,691.2 1641.6,633.6 "/>
<polygon class="st10" points="691.2,374.4 662.4,374.4 662.4,316.8 633.6,316.8 633.6,288 691.2,288 "/>
<polygon class="st10" points="259.2,403.2 259.2,374.4 201.6,374.4 201.6,345.6 172.8,345.6 172.8,403.2 "/>
<polygon class="st10" points="777.6,604.8 777.6,633.6 720,633.6 720,662.4 691.2,662.4 691.2,604.8 "/>
<polygon class="st10" points="691.2,432 691.2,403.2 633.6,403.2 633.6,374.4 604.8,374.4 604.8,432 "/>
<polygon class="st11" points="1296,259.2 1324.8,259.2 1324.8,316.8 1353.6,316.8 1353.6,345.6 1296,345.6 "/>
<polygon class="st11" points="1094.4,576 1123.2,576 1123.2,633.6 1152,633.6 1152,662.4 1094.4,662.4 "/>
<polygon class="st11" points="1267.2,288 1296,288 1296,230.4 1324.8,230.4 1324.8,201.6 1267.2,201.6 "/>
<polygon class="st12" points="374.4,345.6 345.6,345.6 345.6,403.2 316.8,403.2 316.8,432 374.4,432 "/>
<polygon class="st12" points="1411.2,172.8 1440,172.8 1440,115.2 1468.8,115.2 1468.8,86.4 1411.2,86.4 "/>
<polygon class="st12" points="892.8,432 892.8,403.2 950.4,403.2 950.4,374.4 979.2,374.4 979.2,432 "/>
<polygon class="st12" points="1584,489.6 1584,518.4 1641.6,518.4 1641.6,547.2 1670.4,547.2 1670.4,489.6 "/>
<polygon class="st12" points="172.8,28.8 172.8,57.6 230.4,57.6 230.4,86.4 259.2,86.4 259.2,28.8 "/>
<polygon class="st13" points="1209.6,691.2 1209.6,720 1267.2,720 1267.2,748.8 1296,748.8 1296,691.2 "/>
<polygon class="st13" points="115.2,172.8 144,172.8 144,230.4 172.8,230.4 172.8,259.2 115.2,259.2 "/>
<polygon class="st13" points="1324.8,201.6 1324.8,172.8 1267.2,172.8 1267.2,144 1238.4,144 1238.4,201.6 "/>
<polygon class="st13" points="1411.2,576 1382.4,576 1382.4,518.4 1353.6,518.4 1353.6,489.6 1411.2,489.6 "/>
<polygon class="st13" points="1612.8,720 1612.8,691.2 1670.4,691.2 1670.4,662.4 1699.2,662.4 1699.2,720 "/>
<polygon class="st14" points="662.4,144 633.6,144 633.6,201.6 604.8,201.6 604.8,230.4 662.4,230.4 "/>
<polygon class="st14" points="460.8,518.4 432,518.4 432,576 403.2,576 403.2,604.8 460.8,604.8 "/>
<polygon class="st14" points="547.2,518.4 547.2,547.2 604.8,547.2 604.8,576 633.6,576 633.6,518.4 "/>
<polygon class="st14" points="316.8,432 288,432 288,374.4 259.2,374.4 259.2,345.6 316.8,345.6 "/>
<polygon class="st15" points="489.6,662.4 518.4,662.4 518.4,604.8 547.2,604.8 547.2,576 489.6,576 "/>
<polygon class="st15" points="691.2,86.4 691.2,115.2 748.8,115.2 748.8,144 777.6,144 777.6,86.4 "/>
<polygon class="st15" points="691.2,691.2 691.2,748.8 777.6,748.8 777.6,720 720,720 720,691.2 "/>
<polygon class="st16" points="1555.2,115.2 1555.2,144 1497.6,144 1497.6,172.8 1468.8,172.8 1468.8,115.2 "/>
<polygon class="st16" points="1036.8,144 1065.6,144 1065.6,201.6 1094.4,201.6 1094.4,230.4 1036.8,230.4 "/>
<polygon class="st16" points="1382.4,662.4 1382.4,748.8 1411.2,748.8 1411.2,691.2 1440,691.2 1440,662.4 "/>
<polygon class="st16" points="518.4,662.4 518.4,691.2 460.8,691.2 460.8,720 432,720 432,662.4 "/>
<polygon class="st16" points="28.8,172.8 28.8,201.6 86.4,201.6 86.4,230.4 115.2,230.4 115.2,172.8 "/>
<polygon class="st17" points="777.6,403.2 777.6,374.4 835.2,374.4 835.2,345.6 864,345.6 864,403.2 "/>
<polygon class="st17" points="748.8,604.8 720,604.8 720,547.2 691.2,547.2 691.2,518.4 748.8,518.4 "/>
<polygon class="st17" points="230.4,316.8 230.4,345.6 172.8,345.6 172.8,374.4 144,374.4 144,316.8 "/>
<polygon class="st17" points="1497.6,489.6 1526.4,489.6 1526.4,432 1555.2,432 1555.2,403.2 1497.6,403.2 "/>
<polygon class="st17" points="1382.4,432 1382.4,460.8 1440,460.8 1440,489.6 1468.8,489.6 1468.8,432 "/>
<polygon class="st17" points="230.4,547.2 230.4,518.4 288,518.4 288,489.6 316.8,489.6 316.8,547.2 "/>
<polygon class="st18" points="288,115.2 316.8,115.2 316.8,172.8 345.6,172.8 345.6,201.6 288,201.6 "/>
<polygon class="st18" points="432,28.8 432,57.6 489.6,57.6 489.6,86.4 518.4,86.4 518.4,28.8 "/>
<polygon class="st18" points="1008,57.6 1008,86.4 1065.6,86.4 1065.6,115.2 1094.4,115.2 1094.4,57.6 "/>
<polygon class="st18" points="1036.8,288 1036.8,259.2 979.2,259.2 979.2,230.4 950.4,230.4 950.4,288 "/>
<polygon class="st18" points="259.2,230.4 259.2,201.6 201.6,201.6 201.6,172.8 172.8,172.8 172.8,230.4 "/>
<polygon class="st18" points="547.2,547.2 547.2,518.4 489.6,518.4 489.6,489.6 460.8,489.6 460.8,547.2 "/>
<polygon class="st19" points="662.4,57.6 691.2,57.6 691.2,115.2 720,115.2 720,144 662.4,144 "/>
<polygon class="st19" points="1440,288 1440,316.8 1382.4,316.8 1382.4,345.6 1353.6,345.6 1353.6,288 "/>
<polygon class="st19" points="777.6,172.8 777.6,201.6 835.2,201.6 835.2,230.4 864,230.4 864,172.8 "/>
<polygon class="st20" points="691.2,691.2 691.2,662.4 748.8,662.4 748.8,633.6 777.6,633.6 777.6,691.2 "/>
<polygon class="st20" points="1094.4,230.4 1123.2,230.4 1123.2,172.8 1152,172.8 1152,144 1094.4,144 "/>
<polygon class="st20" points="1180.8,374.4 1180.8,345.6 1123.2,345.6 1123.2,316.8 1094.4,316.8 1094.4,374.4 "/>
<polygon class="st20" points="950.4,432 950.4,460.8 1008,460.8 1008,489.6 1036.8,489.6 1036.8,432 "/>
<polygon class="st21" points="201.6,432 201.6,460.8 259.2,460.8 259.2,489.6 288,489.6 288,432 "/>
<polygon class="st21" points="1468.8,489.6 1468.8,518.4 1526.4,518.4 1526.4,547.2 1555.2,547.2 1555.2,489.6 "/>
<polygon class="st21" points="403.2,259.2 403.2,288 345.6,288 345.6,316.8 316.8,316.8 316.8,259.2 "/>
<polygon class="st21" points="604.8,230.4 604.8,201.6 547.2,201.6 547.2,172.8 518.4,172.8 518.4,230.4 "/>
<polygon class="st21" points="374.4,403.2 403.2,403.2 403.2,345.6 432,345.6 432,316.8 374.4,316.8 "/>
<polygon class="st21" points="1008,86.4 979.2,86.4 979.2,144 950.4,144 950.4,172.8 1008,172.8 "/>
<polygon class="st22" points="115.2,691.2 115.2,748.8 144,748.8 144,720 201.6,720 201.6,691.2 "/>
<polygon class="st22" points="288,201.6 259.2,201.6 259.2,259.2 230.4,259.2 230.4,288 288,288 "/>
<polygon class="st22" points="1411.2,144 1411.2,172.8 1353.6,172.8 1353.6,201.6 1324.8,201.6 1324.8,144 "/>
<polygon class="st22" points="1670.4,374.4 1670.4,460.8 1728,460.8 1728,432 1699.2,432 1699.2,374.4 "/>
<polygon class="st22" points="604.8,259.2 604.8,230.4 662.4,230.4 662.4,201.6 691.2,201.6 691.2,259.2 "/>
<polygon class="st23" points="1238.4,288 1267.2,288 1267.2,345.6 1296,345.6 1296,374.4 1238.4,374.4 "/>
<polygon class="st23" points="0,259.2 0,316.8 28.8,316.8 28.8,288 86.4,288 86.4,259.2 "/>
<polygon class="st23" points="720,547.2 720,576 662.4,576 662.4,604.8 633.6,604.8 633.6,547.2 "/>
<polygon class="st23" points="1324.8,662.4 1324.8,748.8 1353.6,748.8 1353.6,691.2 1382.4,691.2 1382.4,662.4 "/>
<polygon class="st23" points="403.2,460.8 403.2,432 460.8,432 460.8,403.2 489.6,403.2 489.6,460.8 "/>
<polygon class="st23" points="86.4,403.2 57.6,403.2 57.6,460.8 28.8,460.8 28.8,489.6 86.4,489.6 "/>
<polygon class="st24" points="1238.4,604.8 1209.6,604.8 1209.6,662.4 1180.8,662.4 1180.8,691.2 1238.4,691.2 "/>
<polygon class="st24" points="1008,633.6 1008,604.8 1065.6,604.8 1065.6,576 1094.4,576 1094.4,633.6 "/>
<polygon class="st24" points="316.8,691.2 345.6,691.2 345.6,633.6 374.4,633.6 374.4,604.8 316.8,604.8 "/>
<polygon class="st24" points="432,28.8 403.2,28.8 403.2,86.4 374.4,86.4 374.4,115.2 432,115.2 "/>
<polygon class="st24" points="374.4,172.8 374.4,201.6 432,201.6 432,230.4 460.8,230.4 460.8,172.8 "/>
<polygon class="st25" points="1641.6,403.2 1670.4,403.2 1670.4,345.6 1699.2,345.6 1699.2,316.8 1641.6,316.8 "/>
<polygon class="st25" points="1353.6,460.8 1353.6,432 1296,432 1296,403.2 1267.2,403.2 1267.2,460.8 "/>
<polygon class="st25" points="1238.4,489.6 1238.4,460.8 1180.8,460.8 1180.8,432 1152,432 1152,489.6 "/>
<polygon class="st25" points="144,460.8 144,489.6 201.6,489.6 201.6,518.4 230.4,518.4 230.4,460.8 "/>
<polygon class="st25" points="316.8,432 345.6,432 345.6,489.6 374.4,489.6 374.4,518.4 316.8,518.4 "/>
<polygon class="st25" points="777.6,201.6 777.6,172.8 720,172.8 720,144 691.2,144 691.2,201.6 "/>
<polygon class="st25" points="172.8,57.6 201.6,57.6 201.6,115.2 230.4,115.2 230.4,144 172.8,144 "/>
<polygon class="st26" points="1670.4,144 1670.4,230.4 1699.2,230.4 1699.2,172.8 1728,172.8 1728,144 "/>
<polygon class="st26" points="921.6,28.8 921.6,57.6 864,57.6 864,86.4 835.2,86.4 835.2,28.8 "/>
<polygon class="st26" points="1123.2,460.8 1152,460.8 1152,518.4 1180.8,518.4 1180.8,547.2 1123.2,547.2 "/>
<polygon class="st27" points="921.6,547.2 950.4,547.2 950.4,489.6 979.2,489.6 979.2,460.8 921.6,460.8 "/>
<polygon class="st27" points="1641.6,576 1641.6,633.6 1670.4,633.6 1670.4,604.8 1728,604.8 1728,576 "/>
<polygon class="st28" points="201.6,288 201.6,316.8 259.2,316.8 259.2,345.6 288,345.6 288,288 "/>
<polygon class="st28" points="259.2,576 259.2,547.2 316.8,547.2 316.8,518.4 345.6,518.4 345.6,576 "/>
<polygon class="st28" points="547.2,518.4 547.2,489.6 604.8,489.6 604.8,460.8 633.6,460.8 633.6,518.4 "/>
<polygon class="st29" points="144,144 144,115.2 86.4,115.2 86.4,86.4 57.6,86.4 57.6,144 "/>
<polygon class="st29" points="1670.4,28.8 1670.4,115.2 1728,115.2 1728,86.4 1699.2,86.4 1699.2,28.8 "/>
<polygon class="st29" points="1440,345.6 1440,316.8 1497.6,316.8 1497.6,288 1526.4,288 1526.4,345.6 "/>
<polygon class="st29" points="1296,489.6 1296,460.8 1353.6,460.8 1353.6,432 1382.4,432 1382.4,489.6 "/>
<polygon class="st29" points="345.6,604.8 374.4,604.8 374.4,547.2 403.2,547.2 403.2,518.4 345.6,518.4 "/>
<polygon class="st29" points="374.4,432 403.2,432 403.2,489.6 432,489.6 432,518.4 374.4,518.4 "/>
<polygon class="st29" points="1180.8,432 1180.8,403.2 1123.2,403.2 1123.2,374.4 1094.4,374.4 1094.4,432 "/>
<polygon class="st30" points="172.8,518.4 201.6,518.4 201.6,576 230.4,576 230.4,604.8 172.8,604.8 "/>
<polygon class="st30" points="1036.8,662.4 1036.8,691.2 1065.6,691.2 1065.6,748.8 1094.4,748.8 1094.4,662.4 "/>
<polygon class="st30" points="432,345.6 432,374.4 489.6,374.4 489.6,403.2 518.4,403.2 518.4,345.6 "/>
<polygon class="st30" points="1065.6,201.6 1094.4,201.6 1094.4,144 1123.2,144 1123.2,115.2 1065.6,115.2 "/>
<polygon class="st30" points="806.4,374.4 806.4,345.6 748.8,345.6 748.8,316.8 720,316.8 720,374.4 "/>
<polygon class="st30" points="0,86.4 0,115.2 28.8,115.2 28.8,172.8 57.6,172.8 57.6,86.4 "/>
<polygon class="st30" points="1670.4,489.6 1670.4,460.8 1612.8,460.8 1612.8,432 1584,432 1584,489.6 "/>
<polygon class="st30" points="806.4,460.8 806.4,489.6 864,489.6 864,518.4 892.8,518.4 892.8,460.8 "/>
<polygon class="st30" points="144,86.4 172.8,86.4 172.8,144 201.6,144 201.6,172.8 144,172.8 "/>
<polygon class="st30" points="921.6,115.2 950.4,115.2 950.4,57.6 979.2,57.6 979.2,28.8 921.6,28.8 "/>
<polygon class="st30" points="518.4,374.4 518.4,403.2 576,403.2 576,432 604.8,432 604.8,374.4 "/>
<polygon class="st29" points="432,144 432,115.2 374.4,115.2 374.4,86.4 345.6,86.4 345.6,144 "/>
<polygon class="st29" points="0,432 0,518.4 57.6,518.4 57.6,489.6 28.8,489.6 28.8,432 "/>
<polygon class="st29" points="1324.8,547.2 1353.6,547.2 1353.6,604.8 1382.4,604.8 1382.4,633.6 1324.8,633.6 "/>
<polygon class="st29" points="547.2,288 547.2,316.8 604.8,316.8 604.8,345.6 633.6,345.6 633.6,288 "/>
<polygon class="st29" points="1526.4,604.8 1555.2,604.8 1555.2,662.4 1584,662.4 1584,691.2 1526.4,691.2 "/>
<polygon class="st28" points="144,432 115.2,432 115.2,374.4 86.4,374.4 86.4,345.6 144,345.6 "/>
<polygon class="st28" points="172.8,662.4 144,662.4 144,604.8 115.2,604.8 115.2,576 172.8,576 "/>
<polygon class="st28" points="835.2,374.4 806.4,374.4 806.4,316.8 777.6,316.8 777.6,288 835.2,288 "/>
<polygon class="st28" points="1382.4,633.6 1382.4,662.4 1324.8,662.4 1324.8,691.2 1296,691.2 1296,633.6 "/>
<polygon class="st28" points="1382.4,0 1382.4,86.4 1440,86.4 1440,57.6 1411.2,57.6 1411.2,0 "/>
<polygon class="st28" points="316.8,201.6 316.8,230.4 374.4,230.4 374.4,259.2 403.2,259.2 403.2,201.6 "/>
<polygon class="st28" points="460.8,691.2 460.8,720 403.2,720 403.2,748.8 489.6,748.8 489.6,691.2 "/>
<polygon class="st27" points="979.2,633.6 950.4,633.6 950.4,691.2 921.6,691.2 921.6,720 979.2,720 "/>
<polygon class="st27" points="1526.4,316.8 1555.2,316.8 1555.2,374.4 1584,374.4 1584,403.2 1526.4,403.2 "/>
<polygon class="st27" points="1555.2,691.2 1555.2,748.8 1641.6,748.8 1641.6,720 1584,720 1584,691.2 "/>
<polygon class="st27" points="1411.2,691.2 1411.2,748.8 1497.6,748.8 1497.6,720 1440,720 1440,691.2 "/>
<polygon class="st26" points="1468.8,691.2 1440,691.2 1440,633.6 1411.2,633.6 1411.2,604.8 1468.8,604.8 "/>
<polygon class="st26" points="1555.2,259.2 1584,259.2 1584,201.6 1612.8,201.6 1612.8,172.8 1555.2,172.8 "/>
<polygon class="st26" points="374.4,604.8 374.4,633.6 432,633.6 432,662.4 460.8,662.4 460.8,604.8 "/>
<polygon class="st26" points="1180.8,86.4 1180.8,57.6 1238.4,57.6 1238.4,28.8 1267.2,28.8 1267.2,86.4 "/>
<polygon class="st25" points="1353.6,432 1382.4,432 1382.4,374.4 1411.2,374.4 1411.2,345.6 1353.6,345.6 "/>
<polygon class="st25" points="374.4,432 374.4,403.2 432,403.2 432,374.4 460.8,374.4 460.8,432 "/>
<polygon class="st25" points="979.2,547.2 979.2,576 1036.8,576 1036.8,604.8 1065.6,604.8 1065.6,547.2 "/>
<polygon class="st25" points="892.8,662.4 892.8,633.6 835.2,633.6 835.2,604.8 806.4,604.8 806.4,662.4 "/>
<polygon class="st25" points="1670.4,633.6 1670.4,662.4 1699.2,662.4 1699.2,720 1728,720 1728,633.6 "/>
<polygon class="st24" points="1267.2,662.4 1238.4,662.4 1238.4,604.8 1209.6,604.8 1209.6,576 1267.2,576 "/>
<polygon class="st24" points="345.6,0 345.6,86.4 374.4,86.4 374.4,28.8 403.2,28.8 403.2,0 "/>
<polygon class="st24" points="1670.4,316.8 1670.4,288 1612.8,288 1612.8,259.2 1584,259.2 1584,316.8 "/>
<polygon class="st24" points="1584,518.4 1555.2,518.4 1555.2,460.8 1526.4,460.8 1526.4,432 1584,432 "/>
<polygon class="st24" points="1526.4,662.4 1497.6,662.4 1497.6,604.8 1468.8,604.8 1468.8,576 1526.4,576 "/>
<polygon class="st23" points="1555.2,172.8 1526.4,172.8 1526.4,230.4 1497.6,230.4 1497.6,259.2 1555.2,259.2 "/>
<polygon class="st23" points="921.6,288 892.8,288 892.8,345.6 864,345.6 864,374.4 921.6,374.4 "/>
<polygon class="st23" points="345.6,144 316.8,144 316.8,86.4 288,86.4 288,57.6 345.6,57.6 "/>
<polygon class="st23" points="633.6,374.4 633.6,345.6 576,345.6 576,316.8 547.2,316.8 547.2,374.4 "/>
<polygon class="st22" points="1180.8,86.4 1180.8,57.6 1123.2,57.6 1123.2,28.8 1094.4,28.8 1094.4,86.4 "/>
<polygon class="st22" points="1324.8,518.4 1296,518.4 1296,576 1267.2,576 1267.2,604.8 1324.8,604.8 "/>
<polygon class="st22" points="1209.6,288 1238.4,288 1238.4,230.4 1267.2,230.4 1267.2,201.6 1209.6,201.6 "/>
<polygon class="st21" points="1468.8,518.4 1440,518.4 1440,576 1411.2,576 1411.2,604.8 1468.8,604.8 "/>
<polygon class="st21" points="950.4,115.2 921.6,115.2 921.6,172.8 892.8,172.8 892.8,201.6 950.4,201.6 "/>
<polygon class="st21" points="1353.6,345.6 1324.8,345.6 1324.8,403.2 1296,403.2 1296,432 1353.6,432 "/>
<polygon class="st21" points="1008,201.6 1036.8,201.6 1036.8,144 1065.6,144 1065.6,115.2 1008,115.2 "/>
<polygon class="st21" points="1238.4,432 1209.6,432 1209.6,374.4 1180.8,374.4 1180.8,345.6 1238.4,345.6 "/>
<polygon class="st21" points="950.4,259.2 950.4,288 892.8,288 892.8,316.8 864,316.8 864,259.2 "/>
<polygon class="st20" points="1152,633.6 1180.8,633.6 1180.8,691.2 1209.6,691.2 1209.6,720 1152,720 "/>
<polygon class="st20" points="288,316.8 316.8,316.8 316.8,259.2 345.6,259.2 345.6,230.4 288,230.4 "/>
<polygon class="st20" points="720,403.2 720,374.4 662.4,374.4 662.4,345.6 633.6,345.6 633.6,403.2 "/>
<polygon class="st20" points="489.6,691.2 489.6,720 547.2,720 547.2,748.8 576,748.8 576,691.2 "/>
<polygon class="st19" points="691.2,201.6 691.2,230.4 748.8,230.4 748.8,259.2 777.6,259.2 777.6,201.6 "/>
<polygon class="st19" points="518.4,57.6 547.2,57.6 547.2,115.2 576,115.2 576,144 518.4,144 "/>
<polygon class="st19" points="1123.2,230.4 1152,230.4 1152,288 1180.8,288 1180.8,316.8 1123.2,316.8 "/>
<polygon class="st19" points="748.8,403.2 748.8,432 806.4,432 806.4,460.8 835.2,460.8 835.2,403.2 "/>
<polygon class="st19" points="1468.8,633.6 1497.6,633.6 1497.6,691.2 1526.4,691.2 1526.4,720 1468.8,720 "/>
<polygon class="st19" points="144,547.2 144,576 86.4,576 86.4,604.8 57.6,604.8 57.6,547.2 "/>
<polygon class="st18" points="28.8,316.8 28.8,374.4 0,374.4 0,403.2 57.6,403.2 57.6,316.8 "/>
<polygon class="st18" points="1699.2,489.6 1670.4,489.6 1670.4,547.2 1641.6,547.2 1641.6,576 1699.2,576 "/>
<polygon class="st18" points="720,691.2 720,720 777.6,720 777.6,748.8 806.4,748.8 806.4,691.2 "/>
<polygon class="st18" points="576,86.4 576,115.2 633.6,115.2 633.6,144 662.4,144 662.4,86.4 "/>
<polygon class="st17" points="777.6,144 806.4,144 806.4,86.4 835.2,86.4 835.2,57.6 777.6,57.6 "/>
<polygon class="st17" points="691.2,518.4 662.4,518.4 662.4,460.8 633.6,460.8 633.6,432 691.2,432 "/>
<polygon class="st17" points="1353.6,57.6 1382.4,57.6 1382.4,115.2 1411.2,115.2 1411.2,144 1353.6,144 "/>
<polygon class="st16" points="1209.6,0 1209.6,57.6 1180.8,57.6 1180.8,86.4 1238.4,86.4 1238.4,0 "/>
<polygon class="st16" points="979.2,172.8 1008,172.8 1008,230.4 1036.8,230.4 1036.8,259.2 979.2,259.2 "/>
<polygon class="st16" points="892.8,374.4 864,374.4 864,432 835.2,432 835.2,460.8 892.8,460.8 "/>
<polygon class="st16" points="1497.6,576 1497.6,547.2 1555.2,547.2 1555.2,518.4 1584,518.4 1584,576 "/>
<polygon class="st16" points="28.8,691.2 28.8,748.8 115.2,748.8 115.2,720 57.6,720 57.6,691.2 "/>
<polygon class="st15" points="1180.8,144 1180.8,115.2 1238.4,115.2 1238.4,86.4 1267.2,86.4 1267.2,144 "/>
<polygon class="st15" points="57.6,0 57.6,57.6 28.8,57.6 28.8,86.4 86.4,86.4 86.4,0 "/>
<polygon class="st15" points="1065.6,633.6 1065.6,662.4 1008,662.4 1008,691.2 979.2,691.2 979.2,633.6 "/>
<polygon class="st15" points="316.8,576 316.8,604.8 259.2,604.8 259.2,633.6 230.4,633.6 230.4,576 "/>
<polygon class="st15" points="259.2,662.4 259.2,691.2 288,691.2 288,748.8 316.8,748.8 316.8,662.4 "/>
<polygon class="st14" points="1641.6,86.4 1641.6,144 1728,144 1728,115.2 1670.4,115.2 1670.4,86.4 "/>
<polygon class="st14" points="835.2,201.6 806.4,201.6 806.4,259.2 777.6,259.2 777.6,288 835.2,288 "/>
<polygon class="st14" points="547.2,403.2 576,403.2 576,460.8 604.8,460.8 604.8,489.6 547.2,489.6 "/>
<polygon class="st14" points="1008,316.8 1008,288 1065.6,288 1065.6,259.2 1094.4,259.2 1094.4,316.8 "/>
<polygon class="st14" points="1324.8,86.4 1296,86.4 1296,144 1267.2,144 1267.2,172.8 1324.8,172.8 "/>
<polygon class="st14" points="1440,345.6 1411.2,345.6 1411.2,403.2 1382.4,403.2 1382.4,432 1440,432 "/>
<polygon class="st13" points="1008,432 979.2,432 979.2,374.4 950.4,374.4 950.4,345.6 1008,345.6 "/>
<polygon class="st13" points="1670.4,460.8 1670.4,489.6 1699.2,489.6 1699.2,547.2 1728,547.2 1728,460.8 "/>
<polygon class="st12" points="921.6,691.2 892.8,691.2 892.8,633.6 864,633.6 864,604.8 921.6,604.8 "/>
<polygon class="st12" points="1468.8,432 1497.6,432 1497.6,374.4 1526.4,374.4 1526.4,345.6 1468.8,345.6 "/>
<polygon class="st12" points="1209.6,576 1209.6,547.2 1267.2,547.2 1267.2,518.4 1296,518.4 1296,576 "/>
<polygon class="st12" points="806.4,0 806.4,57.6 777.6,57.6 777.6,86.4 835.2,86.4 835.2,0 "/>
<polygon class="st12" points="115.2,460.8 115.2,432 172.8,432 172.8,403.2 201.6,403.2 201.6,460.8 "/>
<polygon class="st12" points="1094.4,518.4 1123.2,518.4 1123.2,460.8 1152,460.8 1152,432 1094.4,432 "/>
<polygon class="st12" points="1497.6,0 1497.6,57.6 1584,57.6 1584,28.8 1526.4,28.8 1526.4,0 "/>
<polygon class="st11" points="288,345.6 288,316.8 345.6,316.8 345.6,288 374.4,288 374.4,345.6 "/>
<polygon class="st11" points="777.6,662.4 777.6,691.2 835.2,691.2 835.2,720 864,720 864,662.4 "/>
<polygon class="st11" points="403.2,316.8 432,316.8 432,259.2 460.8,259.2 460.8,230.4 403.2,230.4 "/>
<polygon class="st11" points="1094.4,662.4 1094.4,691.2 1123.2,691.2 1123.2,748.8 1152,748.8 1152,662.4 "/>
<polygon class="st10" points="1411.2,201.6 1440,201.6 1440,259.2 1468.8,259.2 1468.8,288 1411.2,288 "/>
<polygon class="st10" points="201.6,691.2 201.6,662.4 144,662.4 144,633.6 115.2,633.6 115.2,691.2 "/>
<polygon class="st9" points="1526.4,604.8 1526.4,576 1584,576 1584,547.2 1612.8,547.2 1612.8,604.8 "/>
<polygon class="st9" points="1123.2,230.4 1123.2,259.2 1065.6,259.2 1065.6,288 1036.8,288 1036.8,230.4 "/>
<polygon class="st9" points="604.8,662.4 604.8,748.8 662.4,748.8 662.4,720 633.6,720 633.6,662.4 "/>
<polygon class="st9" points="950.4,316.8 921.6,316.8 921.6,374.4 892.8,374.4 892.8,403.2 950.4,403.2 "/>
<polygon class="st9" points="892.8,230.4 892.8,201.6 950.4,201.6 950.4,172.8 979.2,172.8 979.2,230.4 "/>
<polygon class="st8" points="144,547.2 144,576 86.4,576 86.4,604.8 57.6,604.8 57.6,547.2 "/>
<polygon class="st7" points="748.8,604.8 748.8,576 806.4,576 806.4,547.2 835.2,547.2 835.2,604.8 "/>
<polygon class="st7" points="1584,144 1555.2,144 1555.2,86.4 1526.4,86.4 1526.4,57.6 1584,57.6 "/>
<polygon class="st7" points="547.2,230.4 518.4,230.4 518.4,288 489.6,288 489.6,316.8 547.2,316.8 "/>
<polygon class="st7" points="57.6,374.4 57.6,403.2 0,403.2 0,432 86.4,432 86.4,374.4 "/>
<polygon class="st7" points="1468.8,432 1468.8,403.2 1411.2,403.2 1411.2,374.4 1382.4,374.4 1382.4,432 "/>
<polygon class="st7" points="864,720 864,691.2 806.4,691.2 806.4,662.4 777.6,662.4 777.6,720 "/>
<polygon class="st6" points="489.6,201.6 489.6,172.8 432,172.8 432,144 403.2,144 403.2,201.6 "/>
<polygon class="st6" points="547.2,691.2 547.2,720 604.8,720 604.8,748.8 633.6,748.8 633.6,691.2 "/>
<polygon class="st6" points="57.6,691.2 57.6,748.8 144,748.8 144,720 86.4,720 86.4,691.2 "/>
<polygon class="st6" points="864,460.8 864,432 921.6,432 921.6,403.2 950.4,403.2 950.4,460.8 "/>
<polygon class="st5" points="806.4,201.6 806.4,230.4 748.8,230.4 748.8,259.2 720,259.2 720,201.6 "/>
<polygon class="st5" points="1526.4,172.8 1526.4,144 1468.8,144 1468.8,115.2 1440,115.2 1440,172.8 "/>
<polygon class="st5" points="921.6,230.4 950.4,230.4 950.4,288 979.2,288 979.2,316.8 921.6,316.8 "/>
<polygon class="st5" points="633.6,403.2 633.6,374.4 691.2,374.4 691.2,345.6 720,345.6 720,403.2 "/>
<polygon class="st5" points="1555.2,576 1584,576 1584,633.6 1612.8,633.6 1612.8,662.4 1555.2,662.4 "/>
<polygon class="st4" points="547.2,230.4 518.4,230.4 518.4,172.8 489.6,172.8 489.6,144 547.2,144 "/>
<polygon class="st4" points="1497.6,489.6 1468.8,489.6 1468.8,547.2 1440,547.2 1440,576 1497.6,576 "/>
<polygon class="st4" points="633.6,460.8 604.8,460.8 604.8,518.4 576,518.4 576,547.2 633.6,547.2 "/>
<polygon class="st4" points="777.6,144 777.6,172.8 835.2,172.8 835.2,201.6 864,201.6 864,144 "/>
<polygon class="st4" points="1382.4,28.8 1353.6,28.8 1353.6,86.4 1324.8,86.4 1324.8,115.2 1382.4,115.2 "/>
<polygon class="st4" points="1267.2,28.8 1267.2,57.6 1209.6,57.6 1209.6,86.4 1180.8,86.4 1180.8,28.8 "/>
<polygon class="st3" points="345.6,403.2 316.8,403.2 316.8,460.8 288,460.8 288,489.6 345.6,489.6 "/>
<polygon class="st3" points="1036.8,547.2 1008,547.2 1008,489.6 979.2,489.6 979.2,460.8 1036.8,460.8 "/>
<polygon class="st3" points="633.6,316.8 633.6,345.6 576,345.6 576,374.4 547.2,374.4 547.2,316.8 "/>
<polygon class="st3" points="1238.4,86.4 1238.4,115.2 1296,115.2 1296,144 1324.8,144 1324.8,86.4 "/>
<polygon class="st3" points="1411.2,115.2 1411.2,144 1353.6,144 1353.6,172.8 1324.8,172.8 1324.8,115.2 "/>
<polygon class="st3" points="1123.2,259.2 1123.2,288 1065.6,288 1065.6,316.8 1036.8,316.8 1036.8,259.2 "/>
<polygon class="st2" points="576,230.4 576,201.6 633.6,201.6 633.6,172.8 662.4,172.8 662.4,230.4 "/>
<polygon class="st2" points="1699.2,576 1670.4,576 1670.4,518.4 1641.6,518.4 1641.6,489.6 1699.2,489.6 "/>
<polygon class="st2" points="489.6,489.6 489.6,518.4 547.2,518.4 547.2,547.2 576,547.2 576,489.6 "/>
<polygon class="st2" points="403.2,547.2 432,547.2 432,489.6 460.8,489.6 460.8,460.8 403.2,460.8 "/>
<polygon class="st2" points="547.2,86.4 547.2,115.2 489.6,115.2 489.6,144 460.8,144 460.8,86.4 "/>
<polygon class="st2" points="432,0 432,57.6 518.4,57.6 518.4,28.8 460.8,28.8 460.8,0 "/>
<polygon class="st1" points="1468.8,259.2 1497.6,259.2 1497.6,316.8 1526.4,316.8 1526.4,345.6 1468.8,345.6 "/>
<polygon class="st1" points="950.4,28.8 979.2,28.8 979.2,86.4 1008,86.4 1008,115.2 950.4,115.2 "/>
<polygon class="st1" points="1180.8,374.4 1152,374.4 1152,316.8 1123.2,316.8 1123.2,288 1180.8,288 "/>
<polygon class="st1" points="86.4,259.2 86.4,288 144,288 144,316.8 172.8,316.8 172.8,259.2 "/>
<polygon class="st0" points="1353.6,547.2 1353.6,518.4 1411.2,518.4 1411.2,489.6 1440,489.6 1440,547.2 "/>
<polygon class="st0" points="1209.6,201.6 1180.8,201.6 1180.8,259.2 1152,259.2 1152,288 1209.6,288 "/>
<polygon class="st0" points="1065.6,720 1094.4,720 1094.4,662.4 1123.2,662.4 1123.2,633.6 1065.6,633.6 "/>
<polygon class="st0" points="1641.6,57.6 1670.4,57.6 1670.4,115.2 1699.2,115.2 1699.2,144 1641.6,144 "/>
<polygon class="st0" points="144,547.2 144,576 201.6,576 201.6,604.8 230.4,604.8 230.4,547.2 "/>
<polygon class="st0" points="374.4,0 374.4,57.6 345.6,57.6 345.6,86.4 403.2,86.4 403.2,0 "/>
<polygon class="st0" points="1641.6,144 1641.6,201.6 1728,201.6 1728,172.8 1670.4,172.8 1670.4,144 "/>
<polygon class="st0" points="460.8,144 460.8,115.2 403.2,115.2 403.2,86.4 374.4,86.4 374.4,144 "/>
<polygon points="691.2,691.2 662.4,691.2 662.4,633.6 633.6,633.6 633.6,604.8 691.2,604.8 "/>
<polygon points="1382.4,403.2 1353.6,403.2 1353.6,460.8 1324.8,460.8 1324.8,489.6 1382.4,489.6 "/>
<polygon points="1238.4,604.8 1238.4,576 1180.8,576 1180.8,547.2 1152,547.2 1152,604.8 "/>
<polygon points="1555.2,460.8 1584,460.8 1584,518.4 1612.8,518.4 1612.8,547.2 1555.2,547.2 "/>
<polygon points="1555.2,633.6 1526.4,633.6 1526.4,576 1497.6,576 1497.6,547.2 1555.2,547.2 "/>
<polygon points="403.2,604.8 403.2,633.6 460.8,633.6 460.8,662.4 489.6,662.4 489.6,604.8 "/>
<polygon points="1526.4,662.4 1497.6,662.4 1497.6,604.8 1468.8,604.8 1468.8,576 1526.4,576 "/>
<polygon points="1267.2,576 1267.2,547.2 1324.8,547.2 1324.8,518.4 1353.6,518.4 1353.6,576 "/>
<polygon class="st0" points="1324.8,432 1296,432 1296,489.6 1267.2,489.6 1267.2,518.4 1324.8,518.4 "/>
<polygon class="st0" points="1497.6,691.2 1468.8,691.2 1468.8,633.6 1440,633.6 1440,604.8 1497.6,604.8 "/>
<polygon class="st0" points="316.8,230.4 288,230.4 288,172.8 259.2,172.8 259.2,144 316.8,144 "/>
<polygon class="st0" points="1008,633.6 979.2,633.6 979.2,576 950.4,576 950.4,547.2 1008,547.2 "/>
<polygon class="st0" points="1152,316.8 1152,345.6 1094.4,345.6 1094.4,374.4 1065.6,374.4 1065.6,316.8 "/>
<polygon class="st0" points="345.6,259.2 345.6,230.4 403.2,230.4 403.2,201.6 432,201.6 432,259.2 "/>
<polygon class="st1" points="892.8,57.6 864,57.6 864,115.2 835.2,115.2 835.2,144 892.8,144 "/>
<polygon class="st1" points="1152,230.4 1123.2,230.4 1123.2,172.8 1094.4,172.8 1094.4,144 1152,144 "/>
<polygon class="st1" points="1555.2,201.6 1526.4,201.6 1526.4,144 1497.6,144 1497.6,115.2 1555.2,115.2 "/>
<polygon class="st1" points="1296,403.2 1267.2,403.2 1267.2,460.8 1238.4,460.8 1238.4,489.6 1296,489.6 "/>
<polygon class="st1" points="403.2,662.4 403.2,748.8 460.8,748.8 460.8,720 432,720 432,662.4 "/>
<polygon class="st1" points="662.4,662.4 662.4,633.6 604.8,633.6 604.8,604.8 576,604.8 576,662.4 "/>
<polygon class="st2" points="0,201.6 0,288 57.6,288 57.6,259.2 28.8,259.2 28.8,201.6 "/>
<polygon class="st2" points="748.8,316.8 777.6,316.8 777.6,259.2 806.4,259.2 806.4,230.4 748.8,230.4 "/>
<polygon class="st2" points="662.4,144 633.6,144 633.6,86.4 604.8,86.4 604.8,57.6 662.4,57.6 "/>
<polygon class="st2" points="1065.6,230.4 1065.6,201.6 1008,201.6 1008,172.8 979.2,172.8 979.2,230.4 "/>
<polygon class="st2" points="28.8,288 57.6,288 57.6,345.6 86.4,345.6 86.4,374.4 28.8,374.4 "/>
<polygon class="st3" points="1296,633.6 1267.2,633.6 1267.2,691.2 1238.4,691.2 1238.4,720 1296,720 "/>
<polygon class="st3" points="1152,518.4 1152,489.6 1209.6,489.6 1209.6,460.8 1238.4,460.8 1238.4,518.4 "/>
<polygon class="st3" points="633.6,691.2 633.6,748.8 720,748.8 720,720 662.4,720 662.4,691.2 "/>
<polygon class="st3" points="1468.8,374.4 1497.6,374.4 1497.6,432 1526.4,432 1526.4,460.8 1468.8,460.8 "/>
<polygon class="st3" points="1152,460.8 1123.2,460.8 1123.2,403.2 1094.4,403.2 1094.4,374.4 1152,374.4 "/>
<polygon class="st4" points="259.2,432 259.2,403.2 201.6,403.2 201.6,374.4 172.8,374.4 172.8,432 "/>
<polygon class="st4" points="835.2,460.8 835.2,432 777.6,432 777.6,403.2 748.8,403.2 748.8,460.8 "/>
<polygon class="st4" points="403.2,144 403.2,172.8 345.6,172.8 345.6,201.6 316.8,201.6 316.8,144 "/>
<polygon class="st5" points="1123.2,489.6 1094.4,489.6 1094.4,432 1065.6,432 1065.6,403.2 1123.2,403.2 "/>
<polygon class="st5" points="835.2,0 835.2,57.6 921.6,57.6 921.6,28.8 864,28.8 864,0 "/>
<polygon class="st5" points="460.8,288 432,288 432,345.6 403.2,345.6 403.2,374.4 460.8,374.4 "/>
<polygon class="st5" points="1324.8,259.2 1324.8,230.4 1382.4,230.4 1382.4,201.6 1411.2,201.6 1411.2,259.2 "/>
<polygon class="st5" points="1324.8,230.4 1296,230.4 1296,288 1267.2,288 1267.2,316.8 1324.8,316.8 "/>
<polygon class="st5" points="86.4,662.4 86.4,691.2 144,691.2 144,720 172.8,720 172.8,662.4 "/>
<polygon class="st6" points="259.2,0 259.2,57.6 345.6,57.6 345.6,28.8 288,28.8 288,0 "/>
<polygon class="st6" points="172.8,662.4 172.8,633.6 230.4,633.6 230.4,604.8 259.2,604.8 259.2,662.4 "/>
<polygon class="st6" points="460.8,604.8 460.8,576 518.4,576 518.4,547.2 547.2,547.2 547.2,604.8 "/>
<polygon class="st6" points="288,518.4 259.2,518.4 259.2,576 230.4,576 230.4,604.8 288,604.8 "/>
<polygon class="st7" points="259.2,460.8 288,460.8 288,403.2 316.8,403.2 316.8,374.4 259.2,374.4 "/>
<polygon class="st7" points="201.6,604.8 201.6,633.6 144,633.6 144,662.4 115.2,662.4 115.2,604.8 "/>
<polygon class="st7" points="28.8,0 28.8,86.4 57.6,86.4 57.6,28.8 86.4,28.8 86.4,0 "/>
<polygon class="st7" points="604.8,144 576,144 576,86.4 547.2,86.4 547.2,57.6 604.8,57.6 "/>
<polygon class="st7" points="748.8,172.8 720,172.8 720,115.2 691.2,115.2 691.2,86.4 748.8,86.4 "/>
<polygon class="st8" points="230.4,259.2 259.2,259.2 259.2,201.6 288,201.6 288,172.8 230.4,172.8 "/>
<polygon class="st8" points="1612.8,345.6 1641.6,345.6 1641.6,403.2 1670.4,403.2 1670.4,432 1612.8,432 "/>
<polygon class="st8" points="374.4,547.2 345.6,547.2 345.6,604.8 316.8,604.8 316.8,633.6 374.4,633.6 "/>
<polygon class="st9" points="1526.4,460.8 1526.4,489.6 1468.8,489.6 1468.8,518.4 1440,518.4 1440,460.8 "/>
<polygon class="st9" points="921.6,230.4 892.8,230.4 892.8,288 864,288 864,316.8 921.6,316.8 "/>
<polygon class="st9" points="1180.8,172.8 1152,172.8 1152,230.4 1123.2,230.4 1123.2,259.2 1180.8,259.2 "/>
<polygon class="st9" points="1584,144 1555.2,144 1555.2,201.6 1526.4,201.6 1526.4,230.4 1584,230.4 "/>
<polygon class="st9" points="1296,345.6 1296,374.4 1238.4,374.4 1238.4,403.2 1209.6,403.2 1209.6,345.6 "/>
<polygon class="st9" points="950.4,518.4 950.4,547.2 892.8,547.2 892.8,576 864,576 864,518.4 "/>
<polygon class="st10" points="288,518.4 288,489.6 345.6,489.6 345.6,460.8 374.4,460.8 374.4,518.4 "/>
<polygon class="st10" points="777.6,691.2 748.8,691.2 748.8,633.6 720,633.6 720,604.8 777.6,604.8 "/>
<polygon class="st10" points="144,144 115.2,144 115.2,86.4 86.4,86.4 86.4,57.6 144,57.6 "/>
<polygon class="st10" points="864,691.2 864,720 806.4,720 806.4,748.8 892.8,748.8 892.8,691.2 "/>
<polygon class="st11" points="316.8,662.4 316.8,691.2 259.2,691.2 259.2,720 230.4,720 230.4,662.4 "/>
<polygon class="st11" points="1036.8,576 1036.8,604.8 1094.4,604.8 1094.4,633.6 1123.2,633.6 1123.2,576 "/>
<polygon class="st11" points="1238.4,115.2 1209.6,115.2 1209.6,172.8 1180.8,172.8 1180.8,201.6 1238.4,201.6 "/>
<polygon class="st11" points="1382.4,288 1382.4,259.2 1440,259.2 1440,230.4 1468.8,230.4 1468.8,288 "/>
<polygon class="st11" points="1641.6,345.6 1612.8,345.6 1612.8,288 1584,288 1584,259.2 1641.6,259.2 "/>
<polygon class="st11" points="1440,691.2 1440,662.4 1382.4,662.4 1382.4,633.6 1353.6,633.6 1353.6,691.2 "/>
<polygon class="st11" points="892.8,691.2 892.8,720 950.4,720 950.4,748.8 979.2,748.8 979.2,691.2 "/>
<polygon class="st12" points="172.8,0 172.8,86.4 230.4,86.4 230.4,57.6 201.6,57.6 201.6,0 "/>
<polygon class="st12" points="230.4,115.2 230.4,144 172.8,144 172.8,172.8 144,172.8 144,115.2 "/>
<polygon class="st12" points="230.4,86.4 230.4,115.2 288,115.2 288,144 316.8,144 316.8,86.4 "/>
<polygon class="st13" points="1036.8,0 1036.8,86.4 1094.4,86.4 1094.4,57.6 1065.6,57.6 1065.6,0 "/>
<polygon class="st13" points="144,403.2 172.8,403.2 172.8,460.8 201.6,460.8 201.6,489.6 144,489.6 "/>
<polygon class="st13" points="547.2,0 547.2,28.8 604.8,28.8 604.8,57.6 633.6,57.6 633.6,0 "/>
<polygon class="st13" points="1094.4,0 1094.4,28.8 1152,28.8 1152,57.6 1180.8,57.6 1180.8,0 "/>
<polygon class="st13" points="230.4,547.2 230.4,518.4 172.8,518.4 172.8,489.6 144,489.6 144,547.2 "/>
<polygon class="st14" points="288,691.2 288,720 345.6,720 345.6,748.8 374.4,748.8 374.4,691.2 "/>
<polygon class="st14" points="892.8,172.8 864,172.8 864,230.4 835.2,230.4 835.2,259.2 892.8,259.2 "/>
<polygon class="st14" points="1065.6,691.2 1036.8,691.2 1036.8,633.6 1008,633.6 1008,604.8 1065.6,604.8 "/>
<polygon class="st14" points="1036.8,316.8 1008,316.8 1008,374.4 979.2,374.4 979.2,403.2 1036.8,403.2 "/>
<polygon class="st14" points="489.6,403.2 518.4,403.2 518.4,345.6 547.2,345.6 547.2,316.8 489.6,316.8 "/>
<polygon class="st15" points="1008,316.8 1036.8,316.8 1036.8,259.2 1065.6,259.2 1065.6,230.4 1008,230.4 "/>
<polygon class="st15" points="1238.4,662.4 1238.4,691.2 1180.8,691.2 1180.8,720 1152,720 1152,662.4 "/>
<polygon class="st15" points="1324.8,662.4 1324.8,748.8 1382.4,748.8 1382.4,720 1353.6,720 1353.6,662.4 "/>
<polygon class="st15" points="460.8,489.6 489.6,489.6 489.6,547.2 518.4,547.2 518.4,576 460.8,576 "/>
<polygon class="st16" points="201.6,403.2 230.4,403.2 230.4,345.6 259.2,345.6 259.2,316.8 201.6,316.8 "/>
<polygon class="st16" points="1670.4,0 1670.4,28.8 1612.8,28.8 1612.8,57.6 1699.2,57.6 1699.2,0 "/>
<polygon class="st16" points="374.4,432 374.4,403.2 432,403.2 432,374.4 460.8,374.4 460.8,432 "/>
<polygon class="st16" points="921.6,662.4 950.4,662.4 950.4,604.8 979.2,604.8 979.2,576 921.6,576 "/>
<polygon class="st17" points="892.8,374.4 892.8,403.2 950.4,403.2 950.4,432 979.2,432 979.2,374.4 "/>
<polygon class="st17" points="1497.6,374.4 1497.6,345.6 1440,345.6 1440,316.8 1411.2,316.8 1411.2,374.4 "/>
<polygon class="st17" points="345.6,316.8 345.6,345.6 288,345.6 288,374.4 259.2,374.4 259.2,316.8 "/>
<polygon class="st17" points="576,230.4 576,259.2 633.6,259.2 633.6,288 662.4,288 662.4,230.4 "/>
<polygon class="st17" points="1526.4,28.8 1497.6,28.8 1497.6,86.4 1468.8,86.4 1468.8,115.2 1526.4,115.2 "/>
<polygon class="st18" points="432,720 432,691.2 489.6,691.2 489.6,662.4 518.4,662.4 518.4,720 "/>
<polygon class="st18" points="460.8,432 460.8,403.2 518.4,403.2 518.4,374.4 547.2,374.4 547.2,432 "/>
<polygon class="st18" points="1065.6,172.8 1036.8,172.8 1036.8,115.2 1008,115.2 1008,86.4 1065.6,86.4 "/>
<polygon class="st18" points="1641.6,460.8 1641.6,432 1584,432 1584,403.2 1555.2,403.2 1555.2,460.8 "/>
<polygon class="st18" points="28.8,144 28.8,172.8 86.4,172.8 86.4,201.6 115.2,201.6 115.2,144 "/>
<polygon class="st19" points="0,432 0,460.8 28.8,460.8 28.8,518.4 57.6,518.4 57.6,432 "/>
<polygon class="st19" points="720,432 720,460.8 662.4,460.8 662.4,489.6 633.6,489.6 633.6,432 "/>
<polygon class="st19" points="921.6,662.4 921.6,633.6 864,633.6 864,604.8 835.2,604.8 835.2,662.4 "/>
<polygon class="st19" points="172.8,259.2 201.6,259.2 201.6,201.6 230.4,201.6 230.4,172.8 172.8,172.8 "/>
<polygon class="st19" points="547.2,460.8 547.2,432 604.8,432 604.8,403.2 633.6,403.2 633.6,460.8 "/>
<polygon class="st19" points="691.2,518.4 691.2,489.6 748.8,489.6 748.8,460.8 777.6,460.8 777.6,518.4 "/>
<polygon class="st20" points="115.2,172.8 144,172.8 144,230.4 172.8,230.4 172.8,259.2 115.2,259.2 "/>
<polygon class="st20" points="432,460.8 432,432 374.4,432 374.4,403.2 345.6,403.2 345.6,460.8 "/>
<polygon class="st20" points="1324.8,432 1353.6,432 1353.6,374.4 1382.4,374.4 1382.4,345.6 1324.8,345.6 "/>
<polygon class="st20" points="864,460.8 835.2,460.8 835.2,518.4 806.4,518.4 806.4,547.2 864,547.2 "/>
<polygon class="st20" points="1555.2,460.8 1526.4,460.8 1526.4,518.4 1497.6,518.4 1497.6,547.2 1555.2,547.2 "/>
<polygon class="st21" points="1209.6,374.4 1180.8,374.4 1180.8,432 1152,432 1152,460.8 1209.6,460.8 "/>
<polygon class="st21" points="633.6,0 633.6,57.6 662.4,57.6 662.4,28.8 720,28.8 720,0 "/>
<polygon class="st21" points="1526.4,633.6 1555.2,633.6 1555.2,691.2 1584,691.2 1584,720 1526.4,720 "/>
<polygon class="st21" points="1296,604.8 1296,576 1353.6,576 1353.6,547.2 1382.4,547.2 1382.4,604.8 "/>
<polygon class="st22" points="1641.6,316.8 1641.6,374.4 1728,374.4 1728,345.6 1670.4,345.6 1670.4,316.8 "/>
<polygon class="st22" points="144,345.6 144,316.8 86.4,316.8 86.4,288 57.6,288 57.6,345.6 "/>
<polygon class="st22" points="1699.2,576 1699.2,604.8 1641.6,604.8 1641.6,633.6 1612.8,633.6 1612.8,576 "/>
<polygon class="st22" points="633.6,144 633.6,172.8 691.2,172.8 691.2,201.6 720,201.6 720,144 "/>
<polygon class="st22" points="316.8,662.4 316.8,633.6 374.4,633.6 374.4,604.8 403.2,604.8 403.2,662.4 "/>
<polygon class="st22" points="57.6,0 57.6,57.6 144,57.6 144,28.8 86.4,28.8 86.4,0 "/>
<polygon class="st23" points="979.2,115.2 979.2,144 921.6,144 921.6,172.8 892.8,172.8 892.8,115.2 "/>
<polygon class="st23" points="662.4,230.4 691.2,230.4 691.2,288 720,288 720,316.8 662.4,316.8 "/>
<polygon class="st24" points="864,403.2 835.2,403.2 835.2,345.6 806.4,345.6 806.4,316.8 864,316.8 "/>
<polygon class="st24" points="57.6,489.6 57.6,518.4 0,518.4 0,547.2 86.4,547.2 86.4,489.6 "/>
<polygon class="st24" points="1324.8,604.8 1324.8,633.6 1382.4,633.6 1382.4,662.4 1411.2,662.4 1411.2,604.8 "/>
<polygon class="st24" points="1699.2,230.4 1670.4,230.4 1670.4,288 1641.6,288 1641.6,316.8 1699.2,316.8 "/>
<polygon class="st24" points="1670.4,720 1641.6,720 1641.6,662.4 1612.8,662.4 1612.8,633.6 1670.4,633.6 "/>
<polygon class="st25" points="1324.8,518.4 1324.8,547.2 1267.2,547.2 1267.2,576 1238.4,576 1238.4,518.4 "/>
<polygon class="st25" points="633.6,518.4 633.6,547.2 691.2,547.2 691.2,576 720,576 720,518.4 "/>
<polygon class="st25" points="777.6,316.8 748.8,316.8 748.8,374.4 720,374.4 720,403.2 777.6,403.2 "/>
<polygon class="st25" points="288,57.6 288,86.4 230.4,86.4 230.4,115.2 201.6,115.2 201.6,57.6 "/>
<polygon class="st26" points="172.8,518.4 172.8,489.6 230.4,489.6 230.4,460.8 259.2,460.8 259.2,518.4 "/>
<polygon class="st26" points="1324.8,0 1324.8,28.8 1267.2,28.8 1267.2,57.6 1353.6,57.6 1353.6,0 "/>
<polygon class="st27" points="460.8,518.4 432,518.4 432,576 403.2,576 403.2,604.8 460.8,604.8 "/>
<polygon class="st27" points="806.4,144 835.2,144 835.2,86.4 864,86.4 864,57.6 806.4,57.6 "/>
<polygon class="st27" points="1526.4,403.2 1555.2,403.2 1555.2,345.6 1584,345.6 1584,316.8 1526.4,316.8 "/>
<polygon class="st27" points="1180.8,662.4 1180.8,633.6 1238.4,633.6 1238.4,604.8 1267.2,604.8 1267.2,662.4 "/>
<polygon class="st27" points="1641.6,489.6 1612.8,489.6 1612.8,547.2 1584,547.2 1584,576 1641.6,576 "/>
<polygon class="st28" points="1094.4,201.6 1094.4,172.8 1036.8,172.8 1036.8,144 1008,144 1008,201.6 "/>
<polygon class="st28" points="201.6,345.6 201.6,374.4 144,374.4 144,403.2 115.2,403.2 115.2,345.6 "/>
<polygon class="st29" points="86.4,489.6 115.2,489.6 115.2,432 144,432 144,403.2 86.4,403.2 "/>
<polygon class="st29" points="345.6,374.4 374.4,374.4 374.4,316.8 403.2,316.8 403.2,288 345.6,288 "/>
<polygon class="st30" points="1324.8,345.6 1324.8,316.8 1267.2,316.8 1267.2,288 1238.4,288 1238.4,345.6 "/>
<polygon class="st30" points="86.4,604.8 57.6,604.8 57.6,662.4 28.8,662.4 28.8,691.2 86.4,691.2 "/>
<polygon class="st30" points="1670.4,201.6 1670.4,230.4 1612.8,230.4 1612.8,259.2 1584,259.2 1584,201.6 "/>
<polygon class="st30" points="1324.8,201.6 1324.8,172.8 1382.4,172.8 1382.4,144 1411.2,144 1411.2,201.6 "/>
<polygon class="st30" points="950.4,662.4 950.4,691.2 1008,691.2 1008,720 1036.8,720 1036.8,662.4 "/>
<polygon class="st30" points="1180.8,144 1180.8,115.2 1123.2,115.2 1123.2,86.4 1094.4,86.4 1094.4,144 "/>
<polygon class="st30" points="892.8,518.4 892.8,489.6 950.4,489.6 950.4,460.8 979.2,460.8 979.2,518.4 "/>
<polygon class="st30" points="1267.2,374.4 1238.4,374.4 1238.4,432 1209.6,432 1209.6,460.8 1267.2,460.8 "/>
<polygon class="st30" points="604.8,691.2 604.8,662.4 547.2,662.4 547.2,633.6 518.4,633.6 518.4,691.2 "/>
<polygon class="st30" points="1123.2,662.4 1123.2,748.8 1180.8,748.8 1180.8,720 1152,720 1152,662.4 "/>
<polygon class="st30" points="518.4,57.6 518.4,86.4 460.8,86.4 460.8,115.2 432,115.2 432,57.6 "/>
<polygon class="st29" points="1670.4,201.6 1670.4,230.4 1699.2,230.4 1699.2,288 1728,288 1728,201.6 "/>
<polygon class="st29" points="86.4,172.8 57.6,172.8 57.6,230.4 28.8,230.4 28.8,259.2 86.4,259.2 "/>
<polygon class="st29" points="547.2,604.8 547.2,576 604.8,576 604.8,547.2 633.6,547.2 633.6,604.8 "/>
<polygon class="st29" points="720,633.6 748.8,633.6 748.8,691.2 777.6,691.2 777.6,720 720,720 "/>
<polygon class="st29" points="633.6,86.4 604.8,86.4 604.8,144 576,144 576,172.8 633.6,172.8 "/>
<polygon class="st29" points="489.6,115.2 489.6,144 547.2,144 547.2,172.8 576,172.8 576,115.2 "/>
<polygon class="st28" points="230.4,201.6 201.6,201.6 201.6,259.2 172.8,259.2 172.8,288 230.4,288 "/>
<polygon class="st28" points="1411.2,172.8 1440,172.8 1440,115.2 1468.8,115.2 1468.8,86.4 1411.2,86.4 "/>
<polygon class="st28" points="1612.8,662.4 1612.8,748.8 1670.4,748.8 1670.4,720 1641.6,720 1641.6,662.4 "/>
<polygon class="st28" points="28.8,144 28.8,115.2 86.4,115.2 86.4,86.4 115.2,86.4 115.2,144 "/>
<polygon class="st28" points="633.6,288 633.6,259.2 576,259.2 576,230.4 547.2,230.4 547.2,288 "/>
<polygon class="st27" points="1584,259.2 1584,230.4 1526.4,230.4 1526.4,201.6 1497.6,201.6 1497.6,259.2 "/>
<polygon class="st27" points="748.8,460.8 748.8,489.6 691.2,489.6 691.2,518.4 662.4,518.4 662.4,460.8 "/>
<polygon class="st27" points="892.8,172.8 892.8,201.6 950.4,201.6 950.4,230.4 979.2,230.4 979.2,172.8 "/>
<polygon class="st26" points="345.6,288 345.6,259.2 288,259.2 288,230.4 259.2,230.4 259.2,288 "/>
<polygon class="st26" points="1209.6,86.4 1180.8,86.4 1180.8,144 1152,144 1152,172.8 1209.6,172.8 "/>
<polygon class="st25" points="1411.2,374.4 1382.4,374.4 1382.4,316.8 1353.6,316.8 1353.6,288 1411.2,288 "/>
<polygon class="st25" points="921.6,345.6 921.6,316.8 979.2,316.8 979.2,288 1008,288 1008,345.6 "/>
<polygon class="st25" points="1411.2,0 1411.2,28.8 1440,28.8 1440,86.4 1468.8,86.4 1468.8,0 "/>
<polygon class="st25" points="1324.8,230.4 1296,230.4 1296,172.8 1267.2,172.8 1267.2,144 1324.8,144 "/>
<polygon class="st25" points="28.8,576 28.8,633.6 0,633.6 0,662.4 57.6,662.4 57.6,576 "/>
<polygon class="st25" points="748.8,172.8 748.8,201.6 806.4,201.6 806.4,230.4 835.2,230.4 835.2,172.8 "/>
<polygon class="st24" points="1497.6,230.4 1497.6,201.6 1440,201.6 1440,172.8 1411.2,172.8 1411.2,230.4 "/>
<polygon class="st24" points="864,316.8 864,288 806.4,288 806.4,259.2 777.6,259.2 777.6,316.8 "/>
<polygon class="st24" points="0,57.6 0,144 28.8,144 28.8,86.4 57.6,86.4 57.6,57.6 "/>
<polygon class="st24" points="460.8,288 489.6,288 489.6,230.4 518.4,230.4 518.4,201.6 460.8,201.6 "/>
<polygon class="st23" points="1065.6,0 1065.6,86.4 1123.2,86.4 1123.2,57.6 1094.4,57.6 1094.4,0 "/>
<polygon class="st23" points="1296,259.2 1267.2,259.2 1267.2,201.6 1238.4,201.6 1238.4,172.8 1296,172.8 "/>
<polygon class="st23" points="144,432 115.2,432 115.2,489.6 86.4,489.6 86.4,518.4 144,518.4 "/>
<polygon class="st22" points="1036.8,518.4 1036.8,547.2 1094.4,547.2 1094.4,576 1123.2,576 1123.2,518.4 "/>
<polygon class="st22" points="345.6,259.2 345.6,288 403.2,288 403.2,316.8 432,316.8 432,259.2 "/>
<polygon class="st22" points="1036.8,460.8 1065.6,460.8 1065.6,403.2 1094.4,403.2 1094.4,374.4 1036.8,374.4 "/>
<polygon class="st22" points="748.8,604.8 748.8,576 691.2,576 691.2,547.2 662.4,547.2 662.4,604.8 "/>
<polygon class="st21" points="86.4,0 86.4,28.8 144,28.8 144,57.6 172.8,57.6 172.8,0 "/>
<polygon class="st21" points="1526.4,720 1526.4,691.2 1468.8,691.2 1468.8,662.4 1440,662.4 1440,720 "/>
<polygon class="st21" points="172.8,172.8 172.8,144 230.4,144 230.4,115.2 259.2,115.2 259.2,172.8 "/>
<polygon class="st21" points="864,432 892.8,432 892.8,374.4 921.6,374.4 921.6,345.6 864,345.6 "/>
<polygon class="st21" points="1209.6,460.8 1209.6,489.6 1152,489.6 1152,518.4 1123.2,518.4 1123.2,460.8 "/>
<polygon class="st21" points="1612.8,374.4 1584,374.4 1584,316.8 1555.2,316.8 1555.2,288 1612.8,288 "/>
<polygon class="st20" points="748.8,144 777.6,144 777.6,86.4 806.4,86.4 806.4,57.6 748.8,57.6 "/>
<polygon class="st20" points="1209.6,316.8 1238.4,316.8 1238.4,259.2 1267.2,259.2 1267.2,230.4 1209.6,230.4 "/>
<polygon class="st20" points="1296,720 1324.8,720 1324.8,662.4 1353.6,662.4 1353.6,633.6 1296,633.6 "/>
<polygon class="st20" points="172.8,576 172.8,604.8 115.2,604.8 115.2,633.6 86.4,633.6 86.4,576 "/>
<polygon class="st19" points="1641.6,432 1641.6,489.6 1728,489.6 1728,460.8 1670.4,460.8 1670.4,432 "/>
<polygon class="st19" points="345.6,604.8 316.8,604.8 316.8,547.2 288,547.2 288,518.4 345.6,518.4 "/>
<polygon class="st19" points="662.4,316.8 662.4,345.6 720,345.6 720,374.4 748.8,374.4 748.8,316.8 "/>
<polygon class="st19" points="316.8,57.6 345.6,57.6 345.6,115.2 374.4,115.2 374.4,144 316.8,144 "/>
<polygon class="st19" points="777.6,432 806.4,432 806.4,374.4 835.2,374.4 835.2,345.6 777.6,345.6 "/>
<polygon class="st19" points="1641.6,345.6 1641.6,403.2 1728,403.2 1728,374.4 1670.4,374.4 1670.4,345.6 "/>
<polygon class="st18" points="518.4,691.2 518.4,748.8 604.8,748.8 604.8,720 547.2,720 547.2,691.2 "/>
<polygon class="st18" points="1296,57.6 1296,86.4 1238.4,86.4 1238.4,115.2 1209.6,115.2 1209.6,57.6 "/>
<polygon class="st18" points="201.6,0 201.6,28.8 230.4,28.8 230.4,86.4 259.2,86.4 259.2,0 "/>
<polygon class="st18" points="1152,518.4 1152,547.2 1209.6,547.2 1209.6,576 1238.4,576 1238.4,518.4 "/>
<polygon class="st17" points="1036.8,691.2 1036.8,720 979.2,720 979.2,748.8 1065.6,748.8 1065.6,691.2 "/>
<polygon class="st17" points="345.6,662.4 345.6,691.2 374.4,691.2 374.4,748.8 403.2,748.8 403.2,662.4 "/>
<polygon class="st17" points="172.8,316.8 172.8,288 230.4,288 230.4,259.2 259.2,259.2 259.2,316.8 "/>
<polygon class="st17" points="806.4,460.8 777.6,460.8 777.6,518.4 748.8,518.4 748.8,547.2 806.4,547.2 "/>
<polygon class="st17" points="950.4,28.8 921.6,28.8 921.6,86.4 892.8,86.4 892.8,115.2 950.4,115.2 "/>
<polygon class="st16" points="921.6,172.8 921.6,144 979.2,144 979.2,115.2 1008,115.2 1008,172.8 "/>
<polygon class="st16" points="201.6,691.2 201.6,748.8 288,748.8 288,720 230.4,720 230.4,691.2 "/>
<polygon class="st16" points="374.4,403.2 403.2,403.2 403.2,345.6 432,345.6 432,316.8 374.4,316.8 "/>
<polygon class="st16" points="921.6,604.8 921.6,576 864,576 864,547.2 835.2,547.2 835.2,604.8 "/>
<polygon class="st16" points="1324.8,259.2 1353.6,259.2 1353.6,316.8 1382.4,316.8 1382.4,345.6 1324.8,345.6 "/>
<polygon class="st16" points="1641.6,86.4 1612.8,86.4 1612.8,144 1584,144 1584,172.8 1641.6,172.8 "/>
<polygon class="st15" points="633.6,374.4 633.6,403.2 576,403.2 576,432 547.2,432 547.2,374.4 "/>
<polygon class="st15" points="1468.8,432 1468.8,460.8 1411.2,460.8 1411.2,489.6 1382.4,489.6 1382.4,432 "/>
<polygon class="st15" points="633.6,172.8 633.6,201.6 576,201.6 576,230.4 547.2,230.4 547.2,172.8 "/>
</svg>
